{
.appVersion = "3133";
.formatVersion = 3;
customParameters = (
{
name = vendorID;
value = XXXX;
},
{
name = panose;
value = (
0,
0,
0,
0,
0,
0,
0,
0,
0,
0
);
},
{
name = unicodeRanges;
value = (
0,
1,
2,
31,
33,
35,
62
);
},
{
name = codePageRanges;
value = (
"1252",
"1250"
);
},
{
name = fsType;
value = (
);
},
{
name = glyphOrder;
value = (
.notdef,
.null,
controlLF,
controlCR,
space,
exclam,
quotedbl,
numbersign,
dollar,
percent,
ampersand,
quotesingle,
parenleft,
parenright,
asterisk,
plus,
comma,
hyphen,
period,
slash,
zero,
one,
two,
three,
four,
five,
six,
seven,
eight,
nine,
colon,
less,
equal,
greater,
question,
at,
A,
B,
C,
D,
E,
F,
G,
H,
I,
J,
K,
L,
M,
N,
O,
P,
Q,
R,
S,
T,
U,
V,
W,
X,
Y,
Z,
bracketleft,
backslash,
bracketright,
underscore,
a,
b,
c,
d,
e,
f,
g,
h,
i,
j,
k,
l,
m,
n,
o,
p,
q,
r,
s,
t,
u,
v,
w,
x,
y,
z,
braceleft,
braceright,
asciitilde,
nonbreakingspace,
cent,
sterling,
yen,
copyright,
softhyphen,
registered,
multiply,
divide,
quoteleft,
quoteright,
quotedblleft,
quotedblright,
Euro,
trademark,
ff.liga,
fi.liga,
fl.liga,
ffl.liga
);
}
);
date = "2020-07-30 16:15:38 +0000";
familyName = Blintzie;
features = (
{
code = "script DFLT;
language dflt;
lookup SUB_0 {
	sub f f l by ffl.liga;
	sub f f by ff.liga;
	sub f i by fi.liga;
	sub f l by fl.liga;
} SUB_0;
script latn;
language dflt;
lookup SUB_0;
";
tag = liga;
}
);
fontMaster = (
{
customParameters = (
{
name = typoAscender;
value = 857;
},
{
name = typoDescender;
value = -220;
},
{
name = typoLineGap;
value = 0;
},
{
name = winAscent;
value = 830;
},
{
name = winDescent;
value = 233;
},
{
name = hheaAscender;
value = 857;
},
{
name = hheaDescender;
value = -220;
},
{
name = strikeoutPosition;
value = 258;
},
{
name = strikeoutSize;
value = 49;
}
);
id = m01;
metricValues = (
{
pos = 857;
},
{
pos = 767;
},
{
pos = 596;
},
{
},
{
pos = -220;
},
{
}
);
name = Regular;
}
);
glyphs = (
{
glyphname = exclam;
kernLeft = exclam;
layers = (
{
layerId = m01;
shapes = (
{
closed = 1;
nodes = (
(56.51,116.59,o),
(9.71,82.56,o),
(9.71,48.52,cs),
(9.71,14.47,o),
(29.76,-20.73,o),
(69.88,-20.73,cs),
(109.99,-20.73,o),
(153.44,13.3,o),
(153.44,50.87,cs),
(153.44,88.43,o),
(117.8,116.59,o),
(87.71,116.59,cs)
);
},
{
closed = 1;
nodes = (
(317.91,763.89,ls),
(285.32,763.89,o),
(248.46,742.62,o),
(225.79,691.6,cs),
(203.11,640.57,o),
(65.62,301.8,o),
(65.62,245.1,cs),
(65.62,188.41,o),
(81.22,160.06,o),
(118.07,160.06,cs),
(145,160.06,o),
(194.62,184.15,o),
(211.62,222.42,cs),
(228.63,260.7,o),
(370.38,623.55,o),
(370.38,688.76,cs),
(370.38,725.62,o),
(353.37,763.9,o),
(317.92,763.9,cs)
);
}
);
width = 325;
}
);
note = exclam;
unicode = 33;
},
{
glyphname = quotedbl;
layers = (
{
layerId = m01;
shapes = (
{
closed = 1;
nodes = (
(113.66,762.49,o),
(71.18,551.68,o),
(71.18,522.77,cs),
(71.18,493.85,o),
(87.62,468.56,o),
(116.39,468.56,cs),
(173.93,468.56,o),
(250.64,682.99,o),
(250.64,709.49,cs),
(250.64,735.98,o),
(231.46,762.49,o),
(205.44,762.49,cs)
);
},
{
closed = 1;
nodes = (
(297.24,762.49,o),
(254.76,551.68,o),
(254.76,522.77,cs),
(254.76,493.85,o),
(271.21,468.56,o),
(299.97,468.56,cs),
(357.51,468.56,o),
(434.23,682.99,o),
(434.23,709.49,cs),
(434.23,735.98,o),
(415.05,762.49,o),
(389.02,762.49,cs)
);
}
);
width = 427;
}
);
note = quotedbl;
unicode = 34;
},
{
glyphname = numbersign;
layers = (
{
layerId = m01;
shapes = (
{
closed = 1;
nodes = (
(757.93,482.58,ls),
(777.4,485.82,o),
(790.38,502.05,o),
(790.38,513.41,cs),
(790.38,524.77,o),
(774.16,553.96,o),
(757.93,553.96,cs),
(752.54,553.96,o),
(725.96,555.04,o),
(691.35,556.47,c),
(719.2,631.47,o),
(744.95,703.81,o),
(744.95,716.17,cs),
(744.95,742.12,o),
(736.85,761.59,o),
(715.76,761.59,cs),
(693.05,761.59,o),
(680.07,751.86,o),
(665.48,730.78,cs),
(657.19,718.82,o),
(630.12,639.53,o),
(603.21,560.1,c),
(554.67,562.04,o),
(509.28,563.69,o),
(491.91,563.69,cs),
(488.06,563.69,o),
(482.04,563.61,o),
(474.3,563.48,c),
(498.46,625.87,o),
(514.62,671.76,o),
(514.62,682.1,cs),
(514.62,721.03,o),
(483.79,759.97,o),
(452.97,759.97,cs),
(407.56,759.97,o),
(381.59,727.52,o),
(360.51,699.95,cs),
(353.92,691.34,o),
(326.28,634.12,o),
(291.38,558.23,c),
(211.86,555.42,o),
(136.95,552.07,o),
(125.3,549.52,cs),
(100.97,544.23,o),
(91.23,521.51,o),
(91.23,506.91,cs),
(91.23,490.69,o),
(110.7,476.1,o),
(125.3,476.1,cs),
(131.53,476.1,o),
(189.73,480.23,o),
(258.06,484.98,c),
(243.25,452.08,o),
(227.98,417.74,o),
(213.06,383.7,c),
(143.9,385.7,o),
(81.26,387.45,o),
(71.77,385.25,cs),
(50.69,380.39,o),
(18.24,377.14,o),
(18.24,351.19,cs),
(18.24,331.72,o),
(36.08,309.01,o),
(50.69,309.01,cs),
(56.65,309.01,o),
(115.01,311.72,o),
(183.22,314.93,c),
(138.3,210.26,o),
(102.59,121,o),
(102.59,104.63,cs),
(102.59,62.45,o),
(128.54,12.16,o),
(177.21,12.16,cs),
(225.87,12.16,o),
(240.47,36.49,o),
(263.18,68.94,cs),
(273.23,83.31,o),
(323.72,197.62,o),
(376.84,323.9,c),
(395.99,324.73,o),
(408.99,325.23,o),
(412.42,325.23,cs),
(419.61,325.23,o),
(461.72,321.03,o),
(513.05,315.73,c),
(472.13,215.71,o),
(417.3,82.07,o),
(417.3,65.69,cs),
(417.3,42.98,o),
(415.68,12.15,o),
(449.74,12.15,cs),
(483.81,12.15,o),
(493.54,39.72,o),
(503.27,55.95,cs),
(510.29,67.64,o),
(565.35,215.87,o),
(598.58,306.83,c),
(662.13,300.24,o),
(719.57,294.39,o),
(728.75,294.39,cs),
(749.84,294.39,o),
(779.04,321.97,o),
(779.04,334.95,cs),
(779.04,347.93,o),
(757.95,385.24,o),
(733.62,383.61,cs),
(724.3,382.98,o),
(679.75,383.55,o),
(626.42,384.13,c),
(633.01,401.99,o),
(648.07,441.34,o),
(665.34,487.04,c),
(711.46,483.68,o),
(750.02,481.23,o),
(757.94,482.55,cs)
);
},
{
closed = 1;
nodes = (
(550.32,407.93,ls),
(547.85,401.56,o),
(544.76,393.75,o),
(541.19,384.84,c),
(480.3,385.14,o),
(425.15,384.71,o),
(410.81,381.97,cs),
(408.53,381.54,o),
(405.09,381.2,o),
(400.71,380.94,c),
(417.2,420.71,o),
(433.41,460.34,o),
(448.19,497.25,c),
(466.01,498.19,o),
(479.66,498.75,o),
(487.05,498.75,cs),
(503.64,498.75,o),
(539.84,496.32,o),
(580.56,493.34,c),
(568.52,458.1,o),
(557.76,427.2,o),
(550.31,407.92,cs)
);
}
);
width = 810;
}
);
note = numbersign;
unicode = 35;
},
{
glyphname = dollar;
layers = (
{
layerId = m01;
shapes = (
{
closed = 1;
nodes = (
(469.73,628.18,ls),
(469.73,643.26,o),
(458.73,653.39,o),
(434.14,661.32,cs),
(422.6,665.05,o),
(388.79,668.89,o),
(349.93,671.86,c),
(359.28,707.97,o),
(375.24,771.16,o),
(375.24,781.58,cs),
(375.24,796.31,o),
(356.83,811.03,o),
(344.56,811.03,cs),
(303.72,811.03,o),
(262.08,729.4,o),
(242.59,676.99,c),
(238.81,677.05,o),
(235.14,677.07,o),
(231.65,677.07,cs),
(168.83,677.07,o),
(80.93,604.19,o),
(80.93,531.32,cs),
(80.93,418.24,o),
(183.97,285.04,o),
(236.74,229.75,c),
(181.46,227.24,o),
(-19.58,192.06,o),
(-19.58,149.33,cs),
(-19.58,138.17,o),
(6.62,128.02,o),
(43.6,121.06,c),
(32.58,93.84,o),
(27.94,70.62,o),
(27.94,55.1,cs),
(27.94,20.61,o),
(51.26,-5.03,o),
(77.02,-5.03,cs),
(120.8,-5.03,o),
(171.04,49.03,o),
(177.05,112.49,c),
(295.52,119.89,o),
(385,176.06,o),
(385,232.27,cs),
(385,347.87,o),
(276.94,541.37,o),
(276.94,571.53,cs),
(276.94,613.47,o),
(469.71,598.03,o),
(469.71,628.19,cs)
);
}
);
width = 489;
}
);
note = dollar;
unicode = 36;
},
{
glyphname = percent;
layers = (
{
layerId = m01;
shapes = (
{
closed = 1;
nodes = (
(301.52,680.57,o),
(267.84,747.98,o),
(197.16,747.98,cs),
(132.91,747.98,o),
(18.26,647.19,o),
(18.26,558.99,cs),
(18.26,461.97,o),
(35.03,392.96,o),
(106.1,392.96,cs),
(201.59,392.96,o),
(301.53,502.92,o),
(301.53,588.4,cs)
);
},
{
closed = 1;
nodes = (
(62.36,601.19,o),
(141.1,684.34,o),
(192.14,684.34,cs),
(217.96,684.34,o),
(257.65,658.52,o),
(257.65,603.07,cs),
(257.65,524.96,o),
(173.86,453.77,o),
(110.86,453.77,cs),
(78.73,453.77,o),
(62.36,504.18,o),
(62.36,545.75,cs)
);
},
{
closed = 1;
nodes = (
(474.86,761.43,o),
(331.62,479.97,o),
(314.03,449.82,cs),
(296.45,419.67,o),
(95.4,105.54,o),
(95.4,75.38,cs),
(95.4,45.23,o),
(90.37,-0.01,o),
(148.17,-0.01,cs),
(205.97,-0.01,o),
(351.72,238.73,o),
(386.92,314.11,cs),
(422.1,389.5,o),
(590.46,655.87,o),
(590.46,708.65,cs),
(590.46,726.25,o),
(572.88,761.43,o),
(545.22,761.43,cs)
);
},
{
closed = 1;
nodes = (
(502.02,359.35,o),
(424.13,244.68,o),
(424.13,188.47,cs),
(424.13,91.69,o),
(437.06,15.07,o),
(491.98,15.07,cs),
(594.31,15.07,o),
(680.2,120.36,o),
(680.2,213.34,cs),
(680.2,306.32,o),
(651.02,359.34,o),
(602.55,359.34,cs)
);
},
{
closed = 1;
nodes = (
(522.64,90.63,ls),
(492.69,90.63,o),
(485.2,136.63,o),
(485.2,191.43,cs),
(485.2,255.36,o),
(535.45,314.12,o),
(593.25,314.12,cs),
(624.27,314.12,o),
(633.91,263.92,o),
(633.91,228.68,cs),
(633.9,160.16,o),
(560.34,90.64,o),
(522.65,90.64,cs)
);
}
);
width = 700;
}
);
note = percent;
unicode = 37;
},
{
glyphname = ampersand;
layers = (
{
layerId = m01;
shapes = (
{
closed = 1;
nodes = (
(362.35,362.02,o),
(299.12,196.78,o),
(285.34,127.37,c),
(253.36,117.33,o),
(217.86,107.57,o),
(186.79,107.57,cs),
(122.71,107.57,o),
(56.74,147.15,o),
(56.74,173.54,cs),
(56.74,199.92,o),
(128.36,377.09,o),
(143.44,390.28,cs),
(158.52,403.48,o),
(303.64,384.62,o),
(324.38,384.62,cs),
(345.11,384.62,o),
(346.99,395.93,o),
(346.99,422.33,cs),
(346.99,460.02,o),
(277.25,475.1,o),
(228.25,475.1,cs),
(220.7,475.1,o),
(212.63,474.56,o),
(204.3,473.63,c),
(207.46,511.95,o),
(218.31,555.03,o),
(235.78,574.99,cs),
(258,600.37,o),
(325.61,611.06,o),
(373.44,613.82,c),
(378.49,567.47,o),
(394.22,514.68,o),
(429.91,514.68,cs),
(490.23,514.68,o),
(544.89,669.23,o),
(544.89,708.81,cs),
(544.89,748.38,o),
(518.51,767.23,o),
(482.7,767.23,cs),
(423.58,767.23,o),
(387.65,727,o),
(375.83,681.84,c),
(363.96,683.31,o),
(350.54,684.3,o),
(335.68,684.3,cs),
(286.67,684.3,o),
(211.28,659.79,o),
(164.16,590.06,cs),
(134.56,546.25,o),
(132.49,492.04,o),
(135.03,457.77,c),
(111.57,449.7,o),
(90.22,439.37,o),
(75.58,427.97,cs),
(41.65,401.58,o),
(-43.17,245.15,o),
(-43.17,164.1,cs),
(-43.17,83.06,o),
(30.33,15.21,o),
(188.66,15.21,cs),
(233.01,15.21,o),
(270.25,21.28,o),
(300.91,30.39,c),
(312.02,9.64,o),
(328.1,-5.52,o),
(348.87,-5.52,cs),
(392.22,-5.52,o),
(412.95,32.17,o),
(441.22,64.21,cs),
(469.5,96.26,o),
(512.85,267.78,o),
(512.85,305.46,cs),
(512.85,343.15,o),
(452.53,362.01,o),
(422.38,362.01,cs)
);
}
);
width = 581;
}
);
note = ampersand;
unicode = 38;
},
{
glyphname = quotesingle;
kernLeft = quotesingle;
layers = (
{
layerId = m01;
shapes = (
{
closed = 1;
nodes = (
(110.72,758.52,o),
(68.24,518.77,o),
(68.24,485.89,cs),
(68.24,453.01,o),
(84.69,424.24,o),
(113.45,424.24,cs),
(170.99,424.24,o),
(247.71,668.1,o),
(247.71,698.24,cs),
(247.71,728.38,o),
(228.52,758.51,o),
(202.5,758.51,cs)
);
}
);
width = 285;
}
);
note = quotesingle;
unicode = 39;
},
{
glyphname = parenleft;
layers = (
{
layerId = m01;
shapes = (
{
closed = 1;
nodes = (
(416.48,748.95,ls),
(324.66,748.95,o),
(16.01,520.59,o),
(16.01,270.91,cs),
(16.01,21.24,o),
(180.61,-2.93,o),
(224.94,-2.93,cs),
(269.27,-2.93,o),
(294.58,23.98,o),
(294.58,49.31,cs),
(294.58,74.63,o),
(245.22,81.75,o),
(226.52,101.55,cs),
(199.61,130.05,o),
(186.94,169.62,o),
(186.94,209.19,cs),
(186.94,353.23,o),
(384.81,606.5,o),
(441.79,649.24,cs),
(468.89,669.56,o),
(508.27,677.73,o),
(508.27,707.8,cs),
(508.27,743.32,o),
(462.37,748.96,o),
(416.46,748.96,cs)
);
}
);
width = 528;
}
);
note = parenleft;
unicode = 40;
},
{
glyphname = parenright;
kernLeft = parenright;
layers = (
{
layerId = m01;
shapes = (
{
closed = 1;
nodes = (
(326.92,781.35,o),
(262.01,752.86,o),
(262.01,724.36,cs),
(262.01,694.28,o),
(312.67,687.96,o),
(347.5,672.12,c),
(382.32,608.81,o),
(295.21,289.42,o),
(168.63,165.6,cs),
(95.81,94.37,o),
(18.25,91.2,o),
(18.25,48.46,cs),
(18.25,5.73,o),
(54.65,-2.19,o),
(79.98,-2.19,cs),
(105.3,-2.19,o),
(241.44,19.97,o),
(344.33,146.6,cs),
(447.23,273.23,o),
(499.45,517,o),
(499.45,618.3,cs),
(499.45,719.61,o),
(440.89,781.34,o),
(375.99,781.34,cs)
);
}
);
width = 485;
}
);
note = parenright;
unicode = 41;
},
{
glyphname = asterisk;
layers = (
{
layerId = m01;
shapes = (
{
closed = 1;
nodes = (
(510.92,681.88,o),
(504.17,698.07,o),
(479.87,698.07,cs),
(462.08,698.07,o),
(397.94,675.63,o),
(358.54,661.5,c),
(349.33,712.47,o),
(340.35,759.4,o),
(336.8,768.27,cs),
(328.7,788.51,o),
(301.71,803.36,o),
(284.16,803.36,cs),
(254.52,803.36,o),
(213.08,743.38,o),
(170.88,675.39,c),
(121.93,694.36,o),
(55.72,719.67,o),
(50.65,719.67,cs),
(42.56,719.67,o),
(18.26,714.27,o),
(18.26,696.73,cs),
(18.26,664.99,o),
(75.7,621.65,o),
(123.64,597.92,c),
(85.32,534.36,o),
(53.36,478.86,o),
(53.36,464.56,cs),
(53.36,429.47,o),
(87.11,410.57,o),
(101.96,410.57,cs),
(116.8,410.57,o),
(219.39,475.36,o),
(238.28,495.61,c),
(238.28,495.61,o),
(336.81,391.68,o),
(361.11,391.68,cs),
(385.4,391.68,o),
(404.29,420.03,o),
(404.29,436.22,cs),
(404.29,452.42,o),
(386.75,505.06,o),
(384.05,517.21,cs),
(383.11,521.39,o),
(378.2,550.03,o),
(371.8,586.63,c),
(420.81,606.33,o),
(510.92,648.08,o),
(510.92,675.13,cs)
);
},
{
closed = 1;
nodes = (
(252.56,540.13,o),
(230,531.21,o),
(221.68,527.55,cs),
(211.76,523.18,o),
(149.18,488.86,o),
(149.18,488.86,c),
(280.11,695.37,l),
(323.29,476.71,ls),
(323.3,476.71,o),
(275.25,523.97,o),
(263.91,532.06,cs)
);
}
);
width = 485;
}
);
note = asterisk;
unicode = 42;
},
{
glyphname = plus;
layers = (
{
layerId = m01;
shapes = (
{
closed = 1;
nodes = (
(569.45,420.32,o),
(522.78,422.05,o),
(456.46,423.51,c),
(483.66,517.02,o),
(500.56,595.75,o),
(500.56,606.91,cs),
(500.56,636.36,o),
(474.78,676.85,o),
(434.29,676.85,cs),
(412.85,676.85,o),
(380.84,663.77,o),
(360.68,636.36,cs),
(325.63,588.71,o),
(301.08,506.18,o),
(274.49,425.43,c),
(264.81,425.41,o),
(255.1,425.35,o),
(245.41,425.28,cs),
(176.65,424.71,o),
(112.79,436.34,o),
(70.41,432.69,cs),
(38.1,429.89,o),
(18.27,413.69,o),
(18.27,403.05,cs),
(18.27,373.43,o),
(52.83,346.27,o),
(84.93,346.27,cs),
(102.71,346.27,o),
(178.89,347.78,o),
(248.31,349.14,c),
(217.23,260.3,o),
(191.35,185.8,o),
(191.35,157.81,cs),
(191.35,91.55,o),
(213.43,76.82,o),
(268.66,76.82,cs),
(328.18,76.82,o),
(388.71,213.06,o),
(432.99,347.57,c),
(495.67,343.18,o),
(580.92,336.39,o),
(595.98,336.39,cs),
(618.2,336.39,o),
(635.47,361.08,o),
(635.47,383.3,cs),
(635.47,405.52,o),
(591.04,420.32,o),
(573.75,420.32,cs)
);
}
);
width = 654;
}
);
note = plus;
unicode = 43;
},
{
glyphname = comma;
kernLeft = comma;
layers = (
{
layerId = m01;
shapes = (
{
closed = 1;
nodes = (
(56.76,187.52,o),
(21.75,129.64,o),
(21.75,95.99,cs),
(21.75,62.34,o),
(54.05,28.69,o),
(90.4,15.23,c),
(90.4,-15.39,o),
(6.82,-96.4,o),
(10.99,-130.13,cs),
(11.95,-137.91,o),
(14.26,-154.35,o),
(27.14,-154.35,cs),
(35.19,-154.35,o),
(53.46,-149.11,o),
(68.87,-134.16,cs),
(125.59,-79.09,o),
(210.19,15.24,o),
(210.19,96,cs),
(210.19,144.45,o),
(163.08,187.53,o),
(128.09,187.53,cs)
);
}
);
width = 359;
}
);
note = comma;
unicode = 44;
},
{
glyphname = hyphen;
kernLeft = hyphen;
layers = (
{
layerId = m01;
shapes = (
{
closed = 1;
nodes = (
(381.18,404.76,o),
(240.45,402.29,o),
(220.7,402.29,cs),
(200.95,402.29,o),
(92.32,397.35,o),
(75.04,392.42,cs),
(57.76,387.48,o),
(18.26,357.86,o),
(18.26,328.22,cs),
(18.26,303.54,o),
(33.08,264.03,o),
(67.64,264.03,cs),
(102.2,264.03,o),
(267.61,256.62,o),
(294.77,256.62,cs),
(321.94,256.62,o),
(477.47,261.56,o),
(477.47,330.69,cs),
(477.47,377.6,o),
(435.51,404.76,o),
(408.34,404.76,cs)
);
}
);
width = 510;
}
);
note = hyphen;
unicode = 45;
},
{
glyphname = period;
kernLeft = period;
layers = (
{
layerId = m01;
shapes = (
{
closed = 1;
nodes = (
(33.52,157.28,o),
(-23.01,118.24,o),
(-23.01,79.21,cs),
(-23.01,40.18,o),
(1.21,-0.2,o),
(49.67,-0.2,cs),
(98.12,-0.2,o),
(150.61,38.83,o),
(150.61,81.9,cs),
(150.61,124.97,o),
(107.55,157.28,o),
(71.21,157.28,cs)
);
}
);
width = 238;
}
);
note = period;
unicode = 46;
},
{
glyphname = slash;
kernLeft = slash;
layers = (
{
layerId = m01;
shapes = (
{
closed = 1;
nodes = (
(464.75,768.51,o),
(35.01,125.81,o),
(35.01,90,cs),
(35.01,54.19,o),
(51.98,16.5,o),
(85.9,16.5,cs),
(204.64,16.5,o),
(404.42,359.52,o),
(427.05,393.44,cs),
(449.66,427.36,o),
(666.41,693.12,o),
(666.41,719.5,cs),
(666.41,745.88,o),
(641.9,768.51,o),
(617.4,768.51,cs)
);
}
);
width = 686;
}
);
note = slash;
unicode = 47;
},
{
glyphname = zero;
layers = (
{
layerId = m01;
shapes = (
{
closed = 1;
nodes = (
(241.26,768.91,o),
(-7.53,482.43,o),
(-7.53,211.02,cs),
(-7.53,75.31,o),
(45.25,-6.53,o),
(128.18,-6.53,cs),
(448.71,-6.53,o),
(557.9,455.1,o),
(557.9,557.81,cs),
(557.9,708.6,o),
(520.21,768.91,o),
(414.66,768.91,cs)
);
},
{
closed = 1;
nodes = (
(509.71,488.08,o),
(364.63,87.46,o),
(229.44,87.46,cs),
(183.27,87.46,o),
(148.65,143.51,o),
(148.65,211.11,cs),
(148.65,301.79,o),
(298.68,656.26,o),
(476.73,656.26,cs),
(494.87,656.26,o),
(509.71,633.17,o),
(509.71,572.17,cs)
);
},
{
closed = 1;
nodes = (
(275.59,319.93,o),
(298.68,293.54,o),
(318.46,293.54,cs),
(351.44,293.54,o),
(400.89,338.06,o),
(400.89,384.22,cs),
(400.89,420.49,o),
(376.16,441.92,o),
(358.02,441.92,cs),
(323.4,441.92,o),
(275.59,400.7,o),
(275.59,356.19,cs)
);
}
);
width = 560;
}
);
note = zero;
unicode = 48;
},
{
glyphname = one;
layers = (
{
layerId = m01;
shapes = (
{
closed = 1;
nodes = (
(219.12,53.87,o),
(198.55,56.22,o),
(170.3,58.8,c),
(224.07,146.85,o),
(391.92,587.23,o),
(391.92,674.15,cs),
(391.92,709.11,o),
(384.6,733.86,o),
(362.11,742.82,c),
(357.26,745.71,o),
(350.85,747.03,o),
(343.17,747.03,cs),
(342.28,747.03,o),
(340.91,746.81,o),
(339.13,746.4,cs),
(336.69,746.2,o),
(334.12,745.48,o),
(331.42,744.24,cs),
(283.24,729.11,o),
(117.62,656.58,o),
(117.62,628.19,cs),
(117.62,606.81,o),
(125.9,602.87,o),
(137.77,602.87,cs),
(150.39,602.87,o),
(203.08,634.9,o),
(261.01,661.78,cs),
(262.23,662.34,o),
(263.45,662.92,o),
(264.68,663.48,c),
(162.78,494.27,o),
(20.73,121.49,o),
(20.73,73.06,cs),
(20.73,71.25,o),
(20.85,69.59,o),
(20.91,67.86,c),
(-21.28,68.72,o),
(-58.79,67.35,o),
(-78.3,61.6,cs),
(-96.4,56.26,o),
(-103.86,46.55,o),
(-103.86,29.11,cs),
(-103.56,18.44,o),
(-98.38,9.35,o),
(-86.51,4.47,cs),
(-81.12,2.25,o),
(23.94,1.78,o),
(65.67,2.57,c),
(68.49,2.11,o),
(71.33,1.84,o),
(74.16,1.84,cs),
(80.18,1.84,o),
(85.86,2.23,o),
(91.29,2.92,c),
(137.47,2.96,o),
(220.8,1.11,o),
(226.94,3.9,cs),
(237.19,8.56,o),
(246.01,16.91,o),
(245.63,30.78,cs),
(245.27,44.66,o),
(234.89,51.21,o),
(224.5,52.97,cs)
);
}
);
width = 411;
}
);
note = one;
unicode = 49;
},
{
glyphname = two;
layers = (
{
layerId = m01;
shapes = (
{
closed = 1;
nodes = (
(217,76.16,ls),
(193.79,76.16,o),
(170.68,75.23,o),
(148.51,73.66,c),
(323.58,212.38,o),
(592.61,499.21,o),
(592.61,626.44,cs),
(592.61,671.68,o),
(575.54,704.91,o),
(554.16,714.96,c),
(533.75,728.91,o),
(486.09,746.13,o),
(438.84,746.13,cs),
(349.1,746.13,o),
(273.62,698.09,o),
(273.62,673.29,cs),
(273.62,648.48,o),
(296.32,635.81,o),
(316.91,635.81,cs),
(337.5,635.81,o),
(364.42,680.68,o),
(437.79,680.68,cs),
(455.9,680.68,o),
(471.7,678.31,o),
(485.3,674.71,c),
(431.94,613.9,o),
(356.07,502.05,o),
(280.2,423.13,cs),
(178.99,317.85,o),
(-46.73,110.71,o),
(-46.73,68.56,cs),
(-46.73,26.41,o),
(-15.79,-4.41,o),
(21.4,-4.41,cs),
(21.57,-4.41,o),
(21.77,-4.37,o),
(21.94,-4.36,cs),
(22.2,-4.36,o),
(22.43,-4.41,o),
(22.69,-4.41,cs),
(61.69,-4.41,o),
(149.38,3.36,o),
(197.59,3.36,cs),
(247.1,3.36,o),
(400.48,-4.89,o),
(400.48,32.97,cs),
(400.48,70.83,o),
(254.87,76.17,o),
(217.01,76.17,cs)
);
}
);
width = 544;
}
);
note = two;
unicode = 50;
},
{
glyphname = three;
layers = (
{
layerId = m01;
shapes = (
{
closed = 1;
nodes = (
(368.48,467.18,ls),
(444.21,547.35,o),
(531.45,676.22,o),
(531.45,720.48,cs),
(531.45,733,o),
(525.75,750.83,o),
(500.72,750.83,cs),
(480.24,750.83,o),
(270.61,756.02,o),
(243.55,748.95,cs),
(217.83,742.22,o),
(206.05,728.37,o),
(206.05,716.99,cs),
(206.05,699.92,o),
(215.2,684.84,o),
(236.82,684.84,cs),
(249.91,684.84,o),
(326.53,683.9,o),
(388.89,684.06,c),
(304.36,599.16,o),
(224.17,470.33,o),
(224.17,441.67,cs),
(224.17,418.81,o),
(240.1,399.56,o),
(268.55,399.56,cs),
(318.03,399.56,o),
(380.12,389.54,o),
(380.12,351.27,cs),
(380.12,298.12,o),
(337.24,165.16,o),
(299.26,122.36,cs),
(261.8,80.15,o),
(194.71,79.83,o),
(178.41,79.83,cs),
(162.11,79.83,o),
(104,98.53,o),
(104,141.06,cs),
(104,176.5,o),
(118.89,202.72,o),
(118.89,218.31,cs),
(118.89,233.9,o),
(122.43,249.49,o),
(90.54,249.49,cs),
(58.65,249.49,o),
(18.25,145.31,o),
(18.25,92.87,cs),
(18.25,40.43,o),
(52.98,-4.25,o),
(176.29,-4.25,cs),
(325.83,-4.25,o),
(462.61,153.82,o),
(462.61,349.43,cs),
(462.61,390.62,o),
(433.81,453.38,o),
(368.47,467.2,cs)
);
}
);
width = 526;
}
);
note = three;
unicode = 51;
},
{
glyphname = four;
layers = (
{
layerId = m01;
shapes = (
{
closed = 1;
nodes = (
(442.61,403.6,ls),
(443.13,405.32,o),
(443.65,407,o),
(444.14,408.62,cs),
(471,495.9,o),
(538.15,691.75,o),
(538.15,714.14,cs),
(538.15,736.52,o),
(524.71,770.09,o),
(486.66,770.09,cs),
(403.65,770.09,o),
(336.18,589.35,o),
(278.82,416.3,c),
(270.28,416.42,o),
(263.27,416.44,o),
(258.36,416.44,cs),
(225.15,416.44,o),
(173.03,420.25,o),
(134.15,415.78,c),
(161.43,480.1,o),
(200.17,581.79,o),
(200.17,594.39,cs),
(200.17,612.29,o),
(180.03,631.32,o),
(157.65,631.32,cs),
(148.57,631.32,o),
(125.8,626.85,o),
(116.24,611.18,cs),
(88.26,565.29,o),
(34.54,415.25,o),
(34.54,385.11,cs),
(34.54,362.74,o),
(47.74,349.4,o),
(60.26,342.71,cs),
(60.56,342.45,o),
(60.83,342.18,o),
(61.15,341.93,cs),
(78.78,328.27,o),
(146.44,333.64,o),
(205.75,333.64,cs),
(214.23,333.64,o),
(230.24,332.55,o),
(250.74,331.08,c),
(213.94,218.54,o),
(184.48,123.93,o),
(184.48,100.86,cs),
(184.48,38.18,o),
(211.34,10.2,o),
(257.22,10.2,cs),
(303.12,10.2,o),
(324.37,42.66,o),
(338.93,65.05,cs),
(349.93,81.98,o),
(389.13,219.97,o),
(419.18,323.96,c),
(480.31,325.03,o),
(530.3,332.92,o),
(530.3,357.15,cs),
(530.3,380.82,o),
(491.39,395.05,o),
(442.6,403.61,cs)
);
}
);
width = 557;
}
);
note = four;
unicode = 52;
},
{
glyphname = five;
layers = (
{
layerId = m01;
shapes = (
{
closed = 1;
nodes = (
(373.24,765.74,o),
(246.29,755.81,o),
(222.33,755.81,cs),
(196.93,755.81,o),
(177.92,733.32,o),
(163.28,704.9,cs),
(144.35,668.15,o),
(61.57,466.55,o),
(61.57,426.97,cs),
(61.57,387.38,o),
(78.54,359.11,o),
(108.69,359.11,cs),
(162.1,359.11,o),
(294.97,364.38,o),
(294.97,312.86,cs),
(294.97,261.35,o),
(232.46,132.94,o),
(188.48,102.78,cs),
(144.5,72.63,o),
(-17.59,83.94,o),
(-37.69,83.94,cs),
(-57.8,83.94,o),
(-71.62,65.1,o),
(-71.62,52.53,cs),
(-71.62,39.96,o),
(-69.11,-0.25,o),
(66.6,-0.25,cs),
(202.31,-0.25,o),
(252.57,37.44,o),
(268.9,57.55,cs),
(285.24,77.65,o),
(379.47,238.48,o),
(379.47,312.61,cs),
(379.47,347.79,o),
(376.5,377.94,o),
(340.52,399.31,cs),
(314.89,414.54,o),
(265.08,427.93,o),
(221.91,435.65,c),
(244.81,493.4,o),
(283.58,597.89,o),
(297.87,662.47,c),
(358.33,661.27,o),
(440.03,662.01,o),
(488.9,672.16,cs),
(516.46,677.89,o),
(523.88,698.86,o),
(523.88,714.41,cs),
(523.89,738.48,o),
(494.81,743.45,o),
(454.6,750.81,cs)
);
}
);
width = 449;
}
);
note = five;
unicode = 53;
},
{
glyphname = six;
layers = (
{
layerId = m01;
shapes = (
{
closed = 1;
nodes = (
(302.48,424.89,o),
(276.85,422.24,o),
(255.96,418.23,c),
(316.73,547.39,o),
(382.9,677.11,o),
(382.9,689.22,cs),
(382.9,711.62,o),
(366.1,750.82,o),
(322.42,750.82,cs),
(173.45,750.82,o),
(-21.43,286,o),
(-21.43,167.28,cs),
(-21.43,48.56,o),
(96.18,-1.85,o),
(145.46,-1.85,cs),
(214.02,-1.85,o),
(300.12,35.76,o),
(351.01,96.4,cs),
(415.69,173.47,o),
(443.58,280.29,o),
(443.58,312.88,cs),
(443.58,371.12,o),
(391.91,424.89,o),
(333.63,424.89,cs)
);
},
{
closed = 1;
nodes = (
(308.99,129.2,ls),
(290.03,109.48,o),
(243.97,69.84,o),
(207.07,69.84,cs),
(170.17,69.84,o),
(156.67,133.68,o),
(156.67,162.8,cs),
(156.67,191.6,o),
(186.36,265.68,o),
(224.23,349.51,c),
(255.1,360.91,o),
(290.73,371.13,o),
(320.2,371.13,cs),
(356.4,371.13,o),
(384.04,347.21,o),
(384.04,307.39,cs),
(384.04,235.71,o),
(337,158.33,o),
(309,129.21,cs)
);
}
);
width = 501;
}
);
note = six;
unicode = 54;
},
{
glyphname = seven;
layers = (
{
layerId = m01;
shapes = (
{
closed = 1;
nodes = (
(401.19,764.82,o),
(161.04,764.82,o),
(151.68,764.82,cs),
(142.32,764.82,o),
(120.59,754.05,o),
(120.59,734.94,cs),
(120.59,724.44,o),
(131.07,706.84,o),
(147.94,700.1,cs),
(160.03,695.25,o),
(270.23,689.74,o),
(342.26,692.21,c),
(223.58,525.21,o),
(18.26,124.85,o),
(18.26,84.48,cs),
(18.26,39.49,o),
(51.2,9.05,o),
(95.02,9.05,cs),
(120.69,9.05,o),
(157.88,23.6,o),
(175.76,49.41,cs),
(285.84,208.42,o),
(488.66,650.31,o),
(488.66,693.52,cs),
(488.66,746.3,o),
(450.95,764.82,o),
(413.27,764.82,cs)
);
}
);
width = 413;
}
);
note = seven;
unicode = 55;
},
{
glyphname = eight;
layers = (
{
layerId = m01;
shapes = (
{
closed = 1;
nodes = (
(466.58,469.02,o),
(505.35,570.06,o),
(505.35,629.27,cs),
(505.35,719.74,o),
(457.6,767.48,o),
(367.14,767.48,cs),
(198.77,767.48,o),
(130.92,639.33,o),
(130.92,581.53,cs),
(130.92,544.93,o),
(128.96,486.17,o),
(167.69,448,c),
(42.6,404.05,o),
(-34.93,263.74,o),
(-34.93,179.71,cs),
(-34.93,86.44,o),
(33.19,5.75,o),
(140.08,5.75,cs),
(357.01,5.75,o),
(478.57,183.9,o),
(478.57,283.46,cs),
(478.57,345.87,o),
(432.08,397.14,o),
(373.24,428.39,c)
);
},
{
closed = 1;
nodes = (
(455.51,697.39,o),
(450.27,649.19,o),
(450.27,621.93,cs),
(450.27,533.91,o),
(360.15,476.27,o),
(286.79,460.55,c),
(239.64,544.4,o),
(332.9,697.39,o),
(382.16,697.39,cs)
);
},
{
closed = 1;
nodes = (
(166.28,102.16,o),
(114.94,141.98,o),
(114.94,176.56,cs),
(114.94,255.16,o),
(202.96,366.25,o),
(284.7,398.72,c),
(315.08,398.72,o),
(427.22,352.61,o),
(427.22,279.26,cs),
(427.22,192.27,o),
(309.85,102.15,o),
(219.73,102.15,cs)
);
}
);
width = 540;
}
);
note = eight;
unicode = 56;
},
{
glyphname = nine;
layers = (
{
layerId = m01;
shapes = (
{
closed = 1;
nodes = (
(234.1,757.67,o),
(64,620.71,o),
(64,470.48,cs),
(64,373.28,o),
(131.38,268.35,o),
(251.78,268.35,cs),
(265.45,268.35,o),
(280.16,270.38,o),
(294.6,273.87,c),
(206.86,171.28,o),
(67.31,39.03,o),
(67.31,15.52,cs),
(67.31,-3.12,o),
(82.78,-18.86,o),
(112.61,-18.86,cs),
(164.53,-18.86,o),
(319.16,127.21,o),
(424.1,308.11,cs),
(489.76,421.31,o),
(541.19,542.94,o),
(541.19,667.1,cs),
(541.19,757.67,o),
(437.36,757.67,o),
(392.07,757.67,cs)
);
},
{
closed = 1;
nodes = (
(348.92,381,o),
(230.81,361.16,o),
(230.81,484.83,cs),
(230.81,601.63,o),
(381.41,680.02,o),
(460.54,688.42,c),
(465.49,622.05,o),
(411.15,471.47,o),
(367.75,381.01,c)
);
}
);
width = 499;
}
);
note = nine;
unicode = 57;
},
{
glyphname = colon;
layers = (
{
layerId = m01;
shapes = (
{
closed = 1;
nodes = (
(29.04,184.71,o),
(-27.49,143.77,o),
(-27.49,104.75,cs),
(-27.49,65.72,o),
(-3.27,15.24,o),
(45.19,15.24,cs),
(93.64,15.24,o),
(146.13,64.37,o),
(146.13,107.44,cs),
(146.13,150.51,o),
(103.06,184.71,o),
(66.72,184.71,cs)
);
},
{
closed = 1;
nodes = (
(102.54,542.81,o),
(46.01,501.87,o),
(46.01,462.85,cs),
(46.01,423.82,o),
(70.23,373.34,o),
(118.69,373.34,cs),
(167.14,373.34,o),
(219.63,422.48,o),
(219.63,465.54,cs),
(219.63,508.61,o),
(176.57,542.81,o),
(140.22,542.81,cs)
);
}
);
width = 275;
}
);
note = colon;
unicode = 58;
},
{
glyphname = less;
layers = (
{
layerId = m01;
shapes = (
{
closed = 1;
nodes = (
(327.49,456.77,o),
(-15.3,272.99,o),
(-15.3,272.99,c),
(-34.24,263.89,o),
(-45.93,239.24,o),
(-45.93,232.1,cs),
(-45.93,211.98,o),
(-37.48,191.86,o),
(-15.42,173.04,cs),
(6.65,154.22,o),
(198.1,56.22,o),
(209.79,49.09,cs),
(221.47,41.95,o),
(307.79,-0.24,o),
(333.74,-0.24,cs),
(359.7,-0.24,o),
(402.54,11.44,o),
(402.54,45.18,cs),
(402.54,67.25,o),
(394.76,92.55,o),
(362.95,113.33,cs),
(336.78,130.43,o),
(161.08,224.48,o),
(99.77,257.21,c),
(108.89,261.86,o),
(415.83,418.62,o),
(415.83,433.8,cs),
(415.83,449.2,o),
(419.37,456.78,o),
(373.43,456.78,cs)
);
}
);
width = 435;
}
);
note = less;
unicode = 60;
},
{
glyphname = equal;
layers = (
{
layerId = m01;
shapes = (
{
closed = 1;
nodes = (
(360.57,566.54,ls),
(281.17,566.54,o),
(69.45,573.15,o),
(69.45,510.3,cs),
(69.45,473.91,o),
(112.45,457.37,o),
(132.3,457.37,cs),
(152.15,457.37,o),
(287.79,467.29,o),
(324.17,467.29,cs),
(360.56,467.29,o),
(568.98,460.68,o),
(592.13,460.68,cs),
(615.28,460.68,o),
(641.75,483.83,o),
(641.75,507,cs),
(641.75,563.24,o),
(439.95,566.55,o),
(360.56,566.55,cs)
);
},
{
closed = 1;
nodes = (
(205.08,344.9,o),
(-6.63,351.52,o),
(-6.63,288.66,cs),
(-6.63,252.27,o),
(36.37,235.73,o),
(56.22,235.73,cs),
(76.07,235.73,o),
(211.71,245.65,o),
(248.09,245.65,cs),
(284.48,245.65,o),
(466.43,239.03,o),
(489.58,239.03,cs),
(512.74,239.03,o),
(539.21,262.18,o),
(539.21,285.35,cs),
(539.2,341.59,o),
(363.87,344.9,o),
(284.47,344.9,cs)
);
}
);
width = 614;
}
);
note = equal;
unicode = 61;
},
{
glyphname = greater;
layers = (
{
layerId = m01;
shapes = (
{
closed = 1;
nodes = (
(410.28,367.15,o),
(144.76,477.11,o),
(127.8,477.11,cs),
(112.72,477.11,o),
(87.79,474.59,o),
(87.79,459.17,cs),
(87.79,435.68,o),
(112.5,419.92,o),
(131.34,410.49,cs),
(146.44,402.94,o),
(291.05,342.94,o),
(378.3,308.41,c),
(250.34,252.04,o),
(18.26,129.58,o),
(18.26,95.74,cs),
(18.26,75.01,o),
(40.87,16.58,o),
(78.57,16.58,cs),
(116.26,16.58,o),
(425.37,205.05,o),
(451.76,225.79,cs),
(478.14,246.52,o),
(495.11,274.8,o),
(495.11,289.87,cs),
(495.11,304.95,o),
(470.77,333.73,o),
(459.3,336.99,c)
);
}
);
width = 550;
}
);
note = greater;
unicode = 62;
},
{
glyphname = question;
kernLeft = question;
layers = (
{
layerId = m01;
shapes = (
{
closed = 1;
nodes = (
(48.08,116.37,o),
(1.28,82.34,o),
(1.28,48.3,cs),
(1.28,14.26,o),
(21.34,-20.94,o),
(61.45,-20.94,cs),
(101.56,-20.94,o),
(145.02,13.09,o),
(145.02,50.65,cs),
(145.02,88.21,o),
(109.37,116.37,o),
(79.28,116.37,cs)
);
},
{
closed = 1;
nodes = (
(357.76,759.41,ls),
(323.74,759.41,o),
(254.29,749.49,o),
(254.29,715.47,cs),
(254.29,697.05,o),
(279.8,688.54,o),
(279.8,688.54,c),
(299.65,688.54,o),
(354.92,682.87,o),
(371.93,672.95,c),
(362.01,624.76,o),
(286.89,463.17,o),
(265.62,426.32,c),
(214.59,413.56,o),
(158.76,392.29,o),
(133.24,371.03,c),
(107.73,342.68,o),
(91.27,242.05,o),
(91.27,229.3,cs),
(91.27,216.54,o),
(98.36,196.7,o),
(112.53,196.7,cs),
(158.8,196.7,o),
(178.5,298.24,o),
(189.84,318.09,c),
(219.61,335.1,o),
(335.77,328.57,o),
(379.01,358.29,cs),
(424.37,389.47,o),
(500.91,562.4,o),
(500.91,644.61,cs),
(500.91,702.72,o),
(439.97,759.42,o),
(357.75,759.42,cs)
);
}
);
width = 440;
}
);
note = question;
unicode = 63;
},
{
glyphname = at;
layers = (
{
layerId = m01;
shapes = (
{
closed = 1;
nodes = (
(464.74,506.42,o),
(286.32,482.41,o),
(286.32,328.01,cs),
(286.32,228.51,o),
(434.91,191.02,o),
(481.89,201.06,cs),
(505.59,206.12,o),
(522.36,216.14,o),
(532.74,231.61,c),
(556.37,219.71,o),
(593.91,207.92,o),
(650.01,207.92,cs),
(763.24,207.92,o),
(842.14,420.65,o),
(842.14,506.42,cs),
(842.14,561.31,o),
(752.94,763.75,o),
(516.2,763.75,cs),
(166.24,763.75,o),
(4.98,400.06,o),
(4.98,283.4,cs),
(4.98,132.43,o),
(152.51,-49.41,o),
(375.53,-49.41,cs),
(598.54,-49.41,o),
(735.78,46.66,o),
(735.78,94.7,cs),
(735.78,142.74,o),
(691.17,139.31,o),
(691.17,139.31,c),
(691.17,139.31,o),
(529.92,80.98,o),
(392.67,80.98,cs),
(255.43,80.98,o),
(162.8,204.5,o),
(162.8,290.28,cs),
(162.8,376.05,o),
(279.46,650.53,o),
(502.47,650.53,cs),
(725.48,650.53,o),
(742.64,527.01,o),
(742.64,496.14,cs),
(742.64,441.25,o),
(680.88,283.41,o),
(553.94,283.41,c),
(550.61,281.75,l),
(566.08,331.77,o),
(601.98,449.85,o),
(601.98,468.69,cs),
(601.98,492.7,o),
(567.67,506.43,o),
(526.49,506.43,cs)
);
},
{
closed = 1;
nodes = (
(344.52,431.17,o),
(471.99,460.8,o),
(540.2,460.8,c),
(530.55,410.5,o),
(496.1,287.86,o),
(481.89,273.12,c),
(445.12,265.81,o),
(344.52,289.83,o),
(344.52,344.36,cs)
);
}
);
width = 869;
}
);
note = at;
unicode = 64;
},
{
glyphname = A;
kernRight = A;
layers = (
{
layerId = m01;
shapes = (
{
closed = 1;
nodes = (
(213.2,21.45,o),
(220.28,6.74,o),
(239.94,2.13,cs),
(258.93,-2.32,o),
(271.52,6.66,o),
(282.28,22.46,cs),
(293.02,38.23,o),
(512.48,651.39,o),
(518.06,673.28,cs),
(524.48,698.43,o),
(524.23,768.55,o),
(425.63,768.55,cs),
(392.33,768.55,o),
(353.79,738.48,o),
(329.28,716.75,cs),
(255.79,651.56,o),
(177.07,575.7,o),
(116.74,498.74,cs),
(44.6,406.74,o),
(-11.26,305.24,o),
(-55.43,197.11,cs),
(-70.57,160.05,o),
(-80.23,121.89,o),
(-83.87,82.11,cs),
(-85.58,63.49,o),
(-84.62,45.02,o),
(-76.35,28.02,cs),
(-62.5,-0.41,o),
(-25.39,-8.78,o),
(-10.56,18.97,cs),
(4.27,46.7,o),
(91.98,215.98,o),
(145.42,278.31,c),
(145.42,278.31,o),
(282.02,311.39,o),
(311.41,320.24,c),
(281.42,257.3,o),
(213.22,81.07,o),
(213.21,40.3,cs)
);
},
{
closed = 1;
nodes = (
(305.36,394.8,o),
(226.65,379.92,o),
(195.83,373.47,c),
(208.98,406.47,o),
(365.01,556.21,o),
(414.25,600.18,c),
(386.84,528.58,o),
(352.57,440.68,o),
(334.51,400.05,c)
);
}
);
width = 461;
}
);
note = A;
unicode = (65,192,193,194,195,196,197);
},
{
glyphname = B;
kernLeft = B;
kernRight = B;
layers = (
{
layerId = m01;
shapes = (
{
closed = 1;
nodes = (
(327.94,786.49,ls),
(251.04,786.49,o),
(-34.18,374.55,o),
(-34.18,135.13,cs),
(-34.18,27.96,o),
(41.44,-1.1,o),
(78.84,-1.1,cs),
(177.11,-1.1,o),
(524.32,203.15,o),
(524.32,379.03,cs),
(524.32,440.09,o),
(458.15,475.47,o),
(392.74,477.3,c),
(412.74,487.17,o),
(432.95,500.44,o),
(453.14,510.46,cs),
(506.85,537.1,o),
(552.74,572.09,o),
(583.04,623.27,cs),
(592.56,639.35,o),
(593.62,662.04,o),
(595.84,680.63,cs),
(599.96,714.97,o),
(586.29,738.11,o),
(554.16,750.58,cs),
(531.2,759.48,o),
(507.37,760.08,o),
(483.07,758.02,cs),
(450.42,755.25,o),
(420.09,743.18,o),
(386.92,733.76,c),
(371.08,770.61,o),
(351.9,786.5,o),
(327.95,786.5,cs)
);
},
{
closed = 1;
nodes = (
(263.93,415.28,o),
(319.27,430.02,o),
(372.56,430.02,cs),
(394.43,430.02,o),
(464.53,418.15,o),
(464.53,372.05,cs),
(464.53,286.48,o),
(225.58,87.7,o),
(121.29,87.7,cs),
(83.59,87.7,o),
(189.51,346.59,o),
(229.58,398.11,c)
);
},
{
closed = 1;
nodes = (
(401.32,690.07,o),
(470.97,695.35,o),
(485.17,695.35,cs),
(498.55,695.35,o),
(523.47,682.43,o),
(523.47,653.81,cs),
(523.47,610.88,o),
(387.97,521.19,o),
(277.56,497.15,c),
(299.21,545.4,o),
(324.75,600.73,o),
(372.7,656.68,cs)
);
}
);
width = 535;
}
);
note = B;
unicode = 66;
},
{
glyphname = C;
kernLeft = C;
kernRight = C;
layers = (
{
layerId = m01;
shapes = (
{
closed = 1;
nodes = (
(514.4,480.81,o),
(613.52,792.82,o),
(560.29,792.82,cs),
(538.27,792.82,o),
(508.9,776.3,o),
(495.53,747.11,c),
(483.94,765.54,o),
(463.91,785.09,o),
(418.09,785.09,cs),
(236.82,785.09,o),
(-14.46,435.42,o),
(-14.46,238.87,cs),
(-14.46,69.04,o),
(54.53,8.16,o),
(136.44,8.16,cs),
(274.84,8.16,o),
(354.25,142.84,o),
(354.25,157.77,cs),
(354.25,167.73,o),
(353.3,180.03,o),
(338.27,180.03,cs),
(323.24,180.03,o),
(240.49,89.25,o),
(193.52,89.25,cs),
(155.36,89.25,o),
(140.09,150.91,o),
(140.09,214.06,cs),
(140.09,303.75,o),
(282.71,642.4,o),
(481.37,691.87,c),
(481.37,691.87,o),
(398.78,480.81,o),
(452.01,480.81,cs)
);
}
);
width = 470;
}
);
note = C;
unicode = (67,199);
},
{
glyphname = D;
kernRight = D;
layers = (
{
layerId = m01;
shapes = (
{
closed = 1;
nodes = (
(195.05,776.31,o),
(-46.73,246.17,o),
(-50.73,154.91,cs),
(-53.65,88.19,o),
(-30.64,17.63,o),
(53.32,17.63,cs),
(232.67,17.63,o),
(633.72,467.08,o),
(633.72,616.7,cs),
(633.72,693.03,o),
(605.26,738.32,o),
(546.54,742.29,cs),
(497.85,745.58,o),
(426.71,735.01,o),
(358.13,695.7,c),
(363.74,717.83,o),
(378.59,776.3,o),
(310.53,776.3,cs)
);
},
{
closed = 1;
nodes = (
(372.11,637.57,o),
(479.13,686.12,o),
(501.92,686.12,cs),
(536.43,686.12,o),
(546.53,675.85,o),
(546.53,624.56,cs),
(546.53,487.16,o),
(164.02,101.55,o),
(95.59,101.55,c),
(146.84,268.44,o),
(245.74,485.69,o),
(313.81,589.03,c)
);
}
);
width = 561;
}
);
note = D;
unicode = 68;
},
{
glyphname = E;
kernLeft = E;
kernRight = E;
layers = (
{
layerId = m01;
shapes = (
{
closed = 1;
nodes = (
(450.96,665.23,o),
(534.5,667.86,o),
(534.5,723.43,cs),
(534.5,769.42,o),
(308.88,779.64,o),
(246.04,751.52,cs),
(176.59,720.45,o),
(-57.36,230.53,o),
(-57.36,87.77,cs),
(-57.36,43.06,o),
(-40.38,6.49,o),
(10.59,6.49,cs),
(89.87,2.42,o),
(291.3,3.95,o),
(291.3,48.75,cs),
(291.3,82.13,o),
(140.37,83.79,o),
(103.99,82.13,c),
(136.83,158.38,o),
(189.78,285.23,o),
(216.51,361,c),
(283.76,361,o),
(392.63,348.76,o),
(398.2,400.16,cs),
(403.18,446.04,o),
(309.43,429.49,o),
(236.08,429.49,c),
(265.32,500.85,o),
(306.39,598.7,o),
(333.61,665.23,c)
);
}
);
width = 435;
}
);
note = E;
unicode = (69,200,201,202,203);
},
{
glyphname = F;
kernLeft = E;
kernRight = F;
layers = (
{
layerId = m01;
shapes = (
{
closed = 1;
nodes = (
(247.93,462.39,ls),
(272.42,523.59,o),
(312.4,600.76,o),
(344.94,668.14,c),
(378.57,673.18,o),
(517.53,673.18,o),
(517.53,714.2,cs),
(517.53,768.67,o),
(299.61,784.15,o),
(255.9,762.29,c),
(107.07,630.91,o),
(-50.04,216.96,o),
(-50.04,97.58,cs),
(-50.04,40.43,o),
(-6.33,6.79,o),
(34.03,6.79,cs),
(95,6.79,o),
(184.32,271.18,o),
(214.45,359.62,c),
(269.09,355.95,o),
(416.17,353.96,o),
(416.17,404.36,cs),
(416.17,468.25,o),
(247.06,460.2,o),
(247.94,462.38,cs)
);
}
);
width = 410;
}
);
note = F;
unicode = 70;
},
{
glyphname = G;
kernLeft = C;
kernRight = G;
layers = (
{
layerId = m01;
shapes = (
{
closed = 1;
nodes = (
(540.82,672.16,l),
(540.82,672.16,o),
(461.08,487.57,o),
(525.96,487.57,cs),
(588.36,487.57,o),
(687.47,788.12,o),
(634.25,788.12,cs),
(602.18,788.12,o),
(582.86,771.6,o),
(569.47,742.41,c),
(557.89,760.84,o),
(510.29,780.39,o),
(461.08,780.39,cs),
(222.55,780.39,o),
(-9.73,506.02,o),
(-9.73,187.5,cs),
(-9.73,71.26,o),
(43.47,5.36,o),
(142.93,5.36,cs),
(239.62,5.36,o),
(334.63,122.79,o),
(404.6,201.66,c),
(389.34,162.22,o),
(352.84,83.68,o),
(352.84,63.31,cs),
(352.84,42.94,o),
(355.39,9.24,o),
(381.46,9.24,cs),
(429.8,9.24,o),
(581.16,387.51,o),
(528.4,408.07,cs),
(490.46,422.85,o),
(341.38,406.14,o),
(341.38,364.82,cs),
(341.38,323.5,o),
(412.18,334.49,o),
(437.1,334.49,c),
(395.54,263.22,o),
(242.92,114.71,o),
(199.7,113.22,cs),
(166.27,112.07,o),
(150.43,172.62,o),
(151.29,227.32,cs),
(153.59,373.69,o),
(365.65,692.92,o),
(540.83,672.17,cs)
);
}
);
width = 589;
}
);
note = G;
unicode = 71;
},
{
glyphname = H;
kernLeft = E;
kernRight = A;
layers = (
{
layerId = m01;
shapes = (
{
closed = 1;
nodes = (
(153.82,767.04,o),
(-47.01,241.91,o),
(-47.01,94.21,cs),
(-47.01,49.69,o),
(-34.34,8.3,o),
(12.11,8.3,cs),
(100.98,8.3,o),
(197.53,315.75,o),
(197.53,315.75,c),
(199.11,311.79,o),
(329.95,319.85,o),
(372.35,325.36,c),
(331.9,241.9,o),
(288.82,111.83,o),
(288.82,76.11,cs),
(288.82,40.4,o),
(290.79,5.27,o),
(336.18,5.27,cs),
(416.05,5.27,o),
(457.08,203.25,o),
(529.99,393.77,cs),
(577.24,517.26,o),
(684.33,766.38,o),
(609.03,766.38,cs),
(521.56,766.38,o),
(431.73,480.34,o),
(399.17,388.93,c),
(359.99,384.41,o),
(284.48,382.39,o),
(230.29,389.99,c),
(284.94,555.39,o),
(426.61,767.03,o),
(306.44,767.03,cs)
);
}
);
width = 571;
}
);
note = H;
unicode = 72;
},
{
glyphname = I;
kernLeft = E;
kernRight = I;
layers = (
{
layerId = m01;
shapes = (
{
closed = 1;
nodes = (
(43.77,1.78,ls),
(138.68,1.78,o),
(164.97,179.7,o),
(236.93,349.81,cs),
(310.2,522.98,o),
(376.8,636.22,o),
(376.8,704.48,cs),
(376.8,751.1,o),
(347.22,777.75,o),
(312.9,777.75,cs),
(283.68,777.75,o),
(253.59,772.76,o),
(198.63,674.51,cs),
(96.75,492.34,o),
(-21.02,201.06,o),
(-33.1,103.07,cs),
(-41.73,33.08,o),
(-13.4,1.78,o),
(43.78,1.77,cs)
);
}
);
width = 300;
}
);
note = I;
unicode = (73,204,205,206,207);
},
{
glyphname = J;
kernLeft = J;
kernRight = I;
layers = (
{
layerId = m01;
shapes = (
{
closed = 1;
nodes = (
(267.22,223.1,o),
(422.95,640.37,o),
(422.95,673.66,cs),
(422.95,736.72,o),
(416.1,768.09,o),
(375.07,768.09,cs),
(330.54,768.09,o),
(289.82,729.92,o),
(241.48,620.51,cs),
(177.27,475.19,o),
(64.25,118.18,o),
(36.67,95.11,cs),
(9.87,72.71,o),
(-120.36,137.09,o),
(-120.36,99.81,cs),
(-120.36,54.41,o),
(-15.49,6.7,o),
(72.13,6.7,cs),
(159.75,6.7,o),
(175.63,32.34,o),
(203.33,90.02,cs)
);
}
);
width = 362;
}
);
note = J;
unicode = 74;
},
{
glyphname = K;
kernLeft = K;
kernRight = K;
layers = (
{
layerId = m01;
shapes = (
{
closed = 1;
nodes = (
(392.6,684,ls),
(409.99,715.32,o),
(417.11,775.18,o),
(348.47,775.18,cs),
(236.47,775.18,o),
(123.11,503.87,o),
(102.89,460.22,cs),
(59.1,365.67,o),
(-99.39,2.98,o),
(27.67,2.98,cs),
(127.99,2.98,o),
(194.76,265.74,o),
(223.75,338.1,c),
(256.6,375.59,o),
(290.48,403.81,o),
(328.87,429.77,c),
(328.87,347.35,o),
(329.02,0.72,o),
(396.62,0.72,cs),
(436.29,0.72,o),
(433.28,60.19,o),
(432.96,75.65,cs),
(431.23,157.91,o),
(400.01,426.4,o),
(398.87,473.82,c),
(472.26,533.66,o),
(711.25,696.48,o),
(715.02,727.87,cs),
(718.4,756.09,o),
(700.35,768.76,o),
(682.1,768.76,cs),
(643.71,768.76,o),
(304.01,479.61,o),
(281.21,459.94,c),
(284.13,485.41,o),
(360.98,627.01,o),
(392.61,684.01,cs)
);
}
);
width = 584;
}
);
note = K;
unicode = 75;
},
{
glyphname = L;
kernLeft = B;
kernRight = L;
layers = (
{
layerId = m01;
shapes = (
{
closed = 1;
nodes = (
(408.51,711.48,ls),
(408.51,764.28,o),
(387.73,784.38,o),
(342.77,784.38,cs),
(211.15,784.38,o),
(-55.79,248.45,o),
(-55.79,137.43,cs),
(-55.79,64.31,o),
(-20.64,-1.56,o),
(50.87,-1.56,cs),
(134.85,-1.56,o),
(299.03,100.93,o),
(299.03,141.15,cs),
(299.03,192.69,o),
(153,123.87,o),
(110.92,100.05,c),
(110.92,250.33,o),
(408.52,658.7,o),
(408.52,711.49,cs)
);
}
);
width = 387;
}
);
note = L;
unicode = 76;
},
{
glyphname = M;
kernLeft = M;
kernRight = I;
layers = (
{
layerId = m01;
shapes = (
{
closed = 1;
nodes = (
(325.38,771.28,ls),
(142.19,771.28,o),
(-61.34,156.82,o),
(-61.34,97.33,cs),
(-61.34,37.85,o),
(-48.63,-6.44,o),
(0.25,-6.44,cs),
(117.39,-6.44,o),
(243.33,419.29,o),
(325.39,565.17,c),
(333.02,519.37,o),
(346.38,349.21,o),
(383.91,349.21,cs),
(423.36,349.21,o),
(640.87,604.77,o),
(674.6,626.24,c),
(630.71,521.29,o),
(425.69,84.3,o),
(425.69,50.4,cs),
(425.69,16.51,o),
(437.98,0.34,o),
(468.51,0.34,cs),
(521.95,0.34,o),
(788.71,710.72,o),
(791,727.37,cs),
(794.58,753.36,o),
(786.93,761.19,o),
(761.18,761.19,cs),
(682.35,761.19,o),
(469.76,519.13,o),
(418.96,467.24,c),
(397.9,542.27,o),
(401.72,771.25,o),
(325.39,771.27,cs)
);
}
);
width = 702;
}
);
note = M;
unicode = 77;
},
{
glyphname = N;
kernLeft = M;
kernRight = I;
layers = (
{
layerId = m01;
shapes = (
{
closed = 1;
nodes = (
(364.45,762.4,o),
(340.6,771.28,o),
(325.38,771.28,cs),
(142.19,771.28,o),
(-61.34,156.82,o),
(-61.34,97.33,cs),
(-61.34,37.85,o),
(-48.64,-6.44,o),
(0.23,-6.44,cs),
(117.37,-6.44,o),
(220.42,373.49,o),
(302.48,519.38,c),
(348.27,361.01,o),
(287.21,11.49,o),
(374.98,11.49,cs),
(410.56,11.49,o),
(466.53,207.26,o),
(541.01,397.25,cs),
(614.3,584.26,o),
(722.29,765.54,o),
(666.95,765.54,cs),
(586.81,765.54,o),
(439.87,368.63,o),
(407.43,250.32,c),
(407.61,294.52,o),
(402.74,572.76,o),
(374.99,710.21,cs)
);
}
);
width = 587;
}
);
note = N;
unicode = (78,209);
},
{
glyphname = O;
kernRight = O;
layers = (
{
layerId = m01;
shapes = (
{
closed = 1;
nodes = (
(-5.46,122.91,o),
(26.37,-1.87,o),
(173.84,-1.87,cs),
(328.12,-1.87,o),
(605.22,272.66,o),
(609.66,524.5,cs),
(612.26,671.97,o),
(545.84,764.99,o),
(446.01,764.99,cs),
(189.63,764.99,o),
(0.22,445.08,o),
(-2.78,274.92,cs)
);
},
{
closed = 1;
nodes = (
(542.72,330.32,o),
(325.99,134.26,o),
(237.51,134.26,cs),
(187.6,134.26,o),
(176.58,193.25,o),
(176.58,240.89,cs),
(176.58,439.43,o),
(398.07,649.28,o),
(501.31,649.28,cs),
(539.88,649.28,o),
(547.28,588.96,o),
(546.32,534.51,cs)
);
}
);
width = 597;
}
);
note = O;
unicode = (79,210,211,212,213,214,216);
},
{
glyphname = P;
kernLeft = B;
kernRight = P;
layers = (
{
layerId = m01;
shapes = (
{
closed = 1;
nodes = (
(511.18,721.85,o),
(397.98,767.9,o),
(331.21,767.9,cs),
(217.71,767.9,o),
(-32.91,382.85,o),
(-32.91,151.81,cs),
(-32.91,11.48,o),
(15.23,1,o),
(34.47,1,cs),
(105.49,1,o),
(139.78,138.67,o),
(200.66,295.15,c),
(408.58,352.39,o),
(511.18,523.61,o),
(511.18,613.21,cs)
);
},
{
closed = 1;
nodes = (
(222.53,379.02,ls),
(241.83,431.62,o),
(324.52,601.87,o),
(362.5,676.68,c),
(392.97,670.38,o),
(444.7,655.66,o),
(444.7,621.32,cs),
(444.7,565.42,o),
(412.93,440.75,o),
(222.52,379.01,cs)
);
}
);
width = 438;
}
);
note = P;
unicode = 80;
},
{
glyphname = Q;
kernLeft = B;
kernRight = Q;
layers = (
{
layerId = m01;
shapes = (
{
closed = 1;
nodes = (
(585.01,725.9,o),
(505.23,765.79,o),
(387.92,765.79,cs),
(247.14,765.79,o),
(-41.46,392.73,o),
(-41.46,141.66,cs),
(-41.46,17.3,o),
(35.97,-1.47,o),
(92.27,-1.47,cs),
(178.61,-1.47,o),
(223.85,23.48,o),
(323.56,88.28,c),
(342.28,43.34,o),
(365.9,-8.52,o),
(397.3,-8.52,cs),
(430.55,-8.52,o),
(398.36,65.65,o),
(374,124.68,c),
(485,213.34,o),
(585.01,355.78,o),
(585.01,573.38,cs)
);
},
{
closed = 1;
nodes = (
(134.51,331.71,o),
(406.7,671.93,o),
(458.31,671.93,cs),
(498.19,671.93,o),
(516.96,650.82,o),
(516.96,540.53,cs),
(516.96,391.34,o),
(434.75,274.6,o),
(349.41,194.85,c),
(334.54,250.85,o),
(320.99,322.32,o),
(287.02,322.32,cs),
(249.98,322.32,o),
(276.11,208.64,o),
(297.33,150.61,c),
(242.44,106.45,o),
(193.17,71.26,o),
(162.66,71.26,cs),
(141.55,71.26,o),
(134.5,104.1,o),
(134.5,136.96,cs)
);
}
);
width = 581;
}
);
note = Q;
unicode = 81;
},
{
glyphname = R;
kernRight = R;
layers = (
{
layerId = m01;
shapes = (
{
closed = 1;
nodes = (
(579.47,736.66,o),
(456.22,769.85,o),
(374.05,769.85,cs),
(247.65,769.85,o),
(-71.53,294.24,o),
(-71.53,74.61,cs),
(-71.53,16.14,o),
(-14.65,-1.23,o),
(9.05,-1.23,cs),
(123.56,-1.23,o),
(120.69,164.2,o),
(190.03,335.36,c),
(265.13,187.11,o),
(293.82,-2.81,o),
(348.77,-2.81,cs),
(413.87,-2.81,o),
(325.23,225.31,o),
(257.31,369.58,c),
(441.45,421.14,o),
(579.47,521.22,o),
(579.47,621.31,cs)
);
},
{
closed = 1;
nodes = (
(300.93,537.44,o),
(357.39,623.71,o),
(404.04,687.31,c),
(496.31,683.76,o),
(524.16,653.83,o),
(524.16,619.72,cs),
(524.17,528.74,o),
(370.73,465.93,o),
(233.93,424.62,c)
);
}
);
width = 524;
}
);
note = R;
unicode = 82;
},
{
glyphname = S;
kernRight = S;
layers = (
{
layerId = m01;
shapes = (
{
closed = 1;
nodes = (
(453.28,767.88,o),
(433.8,751.49,o),
(416.37,728.13,c),
(390.94,749.28,o),
(352.45,767.25,o),
(299.89,767.25,cs),
(248.38,767.25,o),
(75.32,697.23,o),
(75.32,520.21,cs),
(75.32,343.19,o),
(223.28,364.33,o),
(223.28,197.88,cs),
(223.28,31.42,o),
(47.59,122.58,o),
(23.8,122.58,cs),
(0.02,122.58,o),
(-7.91,112.01,o),
(-7.91,90.87,cs),
(-7.91,69.74,o),
(35.69,-0.28,o),
(182.32,-0.28,cs),
(328.95,-0.28,o),
(380.47,117.29,o),
(380.47,267.89,cs),
(380.47,369.61,o),
(251.01,463.41,o),
(251.01,538.71,cs),
(251.01,614.01,o),
(306.49,668.17,o),
(335.56,668.17,cs),
(351.34,668.17,o),
(365.49,665.38,o),
(377.94,660.77,c),
(358.36,617.97,o),
(346.12,577.08,o),
(346.12,570.1,cs),
(346.12,554.62,o),
(349.56,513.34,o),
(382.24,513.34,cs),
(414.91,513.34,o),
(502.62,718,o),
(502.62,731.76,cs),
(502.62,745.52,o),
(494.02,767.88,o),
(473.38,767.88,cs)
);
}
);
width = 468;
}
);
note = S;
unicode = 83;
},
{
glyphname = T;
kernLeft = T;
kernRight = T;
layers = (
{
layerId = m01;
shapes = (
{
closed = 1;
nodes = (
(635.54,738.83,ls),
(638.09,758.29,o),
(467.63,773.17,o),
(402.74,773.17,cs),
(337.86,773.17,o),
(124.14,777,o),
(124.14,746.46,cs),
(124.14,714.1,o),
(165.04,690.82,o),
(264.19,681.84,c),
(206.39,561.86,o),
(48.42,220.4,o),
(48.42,129.09,cs),
(48.42,27.47,o),
(91.6,-0.46,o),
(127.16,-0.46,cs),
(179.47,-0.46,o),
(215.73,34.69,o),
(234.82,124.38,cs),
(261.14,248.09,o),
(377.68,563.79,o),
(426.36,678.5,c),
(562.93,682.17,o),
(630.5,700.09,o),
(635.55,738.84,cs)
);
}
);
width = 484;
}
);
note = T;
unicode = 84;
},
{
glyphname = U;
kernRight = U;
layers = (
{
layerId = m01;
shapes = (
{
closed = 1;
nodes = (
(248.72,774.22,o),
(210.21,752.82,o),
(169.56,712.17,cs),
(128.91,671.51,o),
(-12.3,275.71,o),
(-12.3,173.03,cs),
(-12.3,78.89,o),
(36.92,-10.97,o),
(139.6,-10.97,cs),
(359.97,-10.97,o),
(569.4,545.69,o),
(597.46,748.53,c),
(597.46,773.62,o),
(585.27,774.14,o),
(577.99,774.14,cs),
(564.98,774.14,o),
(549.9,768.63,o),
(544,740.33,cs),
(513.52,593.95,o),
(284.9,100.27,o),
(201.65,100.27,cs),
(175.97,100.27,o),
(167.42,140.92,o),
(167.42,181.58,cs),
(167.42,309.94,o),
(345,688.63,o),
(345,746.39,cs),
(345,782.77,o),
(308.63,774.22,o),
(308.63,774.22,c)
);
}
);
width = 514;
}
);
note = U;
unicode = (85,217,218,219,220);
},
{
glyphname = V;
kernLeft = V;
kernRight = V;
layers = (
{
layerId = m01;
shapes = (
{
closed = 1;
nodes = (
(26.56,53.77,o),
(74.27,0.34,o),
(123.88,0.34,cs),
(173.49,0.34,o),
(298.1,155.47,o),
(375.77,301.84,cs),
(524.61,582.35,o),
(641.01,704.48,o),
(641.01,742.64,c),
(641.01,742.64,o),
(635.29,771.26,o),
(608.57,771.26,cs),
(551.32,771.26,o),
(303.25,326.64,o),
(196.39,152.99,c),
(196.39,152.99,o),
(297.52,652.95,o),
(297.52,679.67,cs),
(297.52,706.38,o),
(289.89,767.45,o),
(236.45,767.45,cs),
(89.52,767.45,o),
(26.56,305.66,o),
(26.56,179.72,cs)
);
}
);
width = 507;
}
);
note = V;
unicode = 86;
},
{
glyphname = W;
kernLeft = V;
kernRight = W;
layers = (
{
layerId = m01;
shapes = (
{
closed = 1;
nodes = (
(31.32,61.39,o),
(88.56,6.06,o),
(155.35,6.06,cs),
(222.14,6.06,o),
(319.46,175.89,o),
(382.43,278.94,c),
(382.43,278.94,o),
(390.07,6.06,o),
(449.22,6.06,cs),
(523.64,6.06,o),
(594.24,200.7,o),
(638.13,298.02,cs),
(682.02,395.34,o),
(857.58,698.75,o),
(857.58,725.46,cs),
(857.58,746.45,o),
(846.14,767.44,o),
(823.24,767.44,cs),
(775.53,767.44,o),
(557.99,294.2,o),
(477.84,126.27,c),
(477.84,126.27,o),
(481.67,385.8,o),
(420.6,385.8,cs),
(380.52,385.8,o),
(296.57,267.48,o),
(233.59,183.52,c),
(233.59,273.2,o),
(302.29,649.13,o),
(302.29,675.84,cs),
(302.29,702.55,o),
(309.92,771.25,o),
(239.32,771.25,cs),
(107.65,771.25,o),
(31.32,378.15,o),
(31.32,219.77,cs)
);
}
);
width = 744;
}
);
note = W;
unicode = 87;
},
{
glyphname = X;
kernLeft = X;
kernRight = X;
layers = (
{
layerId = m01;
shapes = (
{
closed = 1;
nodes = (
(418.71,536.99,o),
(574.79,691.49,o),
(574.79,727.39,cs),
(574.79,758.46,o),
(561.43,773.19,o),
(532.81,773.19,cs),
(512.96,773.19,o),
(419.19,676.15,o),
(313.46,551.53,c),
(298.54,632.97,o),
(283.69,718.81,o),
(277.11,740.75,cs),
(265.67,778.91,o),
(219.87,771.28,o),
(202.69,771.28,cs),
(154.98,771.28,o),
(126.36,740.75,o),
(126.36,698.77,cs),
(126.36,662.76,o),
(151.62,499.02,o),
(178.08,384.51,c),
(65,238.23,o),
(-31.64,93.84,o),
(-33.93,38.51,cs),
(-35.05,11.52,o),
(-3.4,2.26,o),
(-3.4,2.26,c),
(35.75,2.26,o),
(123.01,144.59,o),
(205.15,270.99,c),
(227.74,156.26,o),
(250.13,0.35,o),
(345.81,0.35,cs),
(416.41,0.35,o),
(424.04,72.86,o),
(424.04,97.67,cs),
(424.04,153,o),
(359.17,340.02,o),
(340.08,418.25,cs),
(338.17,426.06,o),
(336.12,435.18,o),
(333.97,445.29,c)
);
}
);
width = 542;
}
);
note = X;
unicode = 88;
},
{
glyphname = Y;
kernLeft = Y;
kernRight = Y;
layers = (
{
layerId = m01;
shapes = (
{
closed = 1;
nodes = (
(131.18,589.03,o),
(211.3,428.79,o),
(252.39,363.05,c),
(252.39,363.05,o),
(141.46,71.34,o),
(141.46,44.64,cs),
(141.46,17.94,o),
(155.85,-4.65,o),
(186.65,-4.65,cs),
(250.34,-4.65,o),
(340.72,342.52,o),
(344.84,367.17,c),
(435.22,426.75,o),
(681.74,710.24,o),
(681.74,726.67,cs),
(681.74,743.11,o),
(683.79,771.86,o),
(646.81,771.86,cs),
(609.83,771.86,o),
(427,554.11,o),
(357.16,496.59,c),
(320.18,623.96,o),
(264.72,771.86,o),
(215.41,771.86,cs),
(190.76,771.86,o),
(131.18,749.26,o),
(131.18,714.34,cs)
);
}
);
width = 540;
}
);
note = Y;
unicode = (89,221,376);
},
{
glyphname = Z;
kernLeft = Z;
kernRight = Z;
layers = (
{
layerId = m01;
shapes = (
{
closed = 1;
nodes = (
(142.07,657.91,o),
(304.36,687.64,o),
(372.15,689.7,c),
(281.77,626.01,o),
(-73.63,180.23,o),
(-73.63,96,cs),
(-73.63,11.78,o),
(-14.05,-2.61,o),
(92.77,-2.61,cs),
(199.59,-2.61,o),
(308.47,11.48,o),
(308.47,48.76,cs),
(308.47,86.01,o),
(135.91,83.68,o),
(98.93,81.63,c),
(287.93,389.77,o),
(544.71,628.06,o),
(544.71,716.39,cs),
(544.71,769.81,o),
(411.18,765.69,o),
(349.55,765.69,cs),
(263.28,765.69,o),
(142.07,758.46,o),
(142.07,708.18,cs)
);
}
);
width = 448;
}
);
note = Z;
unicode = 90;
},
{
glyphname = bracketleft;
layers = (
{
layerId = m01;
shapes = (
{
closed = 1;
nodes = (
(267.24,797.44,o),
(109.46,595.4,o),
(56.68,448.39,cs),
(3.9,301.38,o),
(-14.94,165.68,o),
(-14.94,109.13,cs),
(-14.94,52.58,o),
(24.1,4.93,o),
(80.64,4.93,cs),
(137.19,4.93,o),
(275.31,22.43,o),
(275.31,71.43,cs),
(275.31,114.27,o),
(164.31,133.71,o),
(137.92,133.71,c),
(160.54,197.79,o),
(316.78,640.63,o),
(343.17,689.63,c),
(432.3,687.74,o),
(512.79,708.57,o),
(512.79,746.17,cs),
(512.8,796.06,o),
(393.42,797.44,o),
(308.72,797.44,cs)
);
}
);
width = 532;
}
);
note = bracketleft;
unicode = 91;
},
{
glyphname = backslash;
layers = (
{
layerId = m01;
shapes = (
{
closed = 1;
nodes = (
(285.89,455.67,ls),
(259.5,515.98,o),
(201.07,649.8,o),
(182.23,698.8,cs),
(163.38,747.8,o),
(140.76,781.73,o),
(80.45,781.73,cs),
(46.53,781.73,o),
(18.26,747.8,o),
(18.26,700.67,cs),
(18.26,629.05,o),
(225.59,169.18,o),
(259.51,106.97,cs),
(293.43,44.78,o),
(338.67,7.08,o),
(383.91,7.08,cs),
(410.29,7.08,o),
(432.92,33.46,o),
(432.92,86.24,cs),
(432.91,139.02,o),
(312.28,395.34,o),
(285.9,455.65,cs)
);
}
);
width = 453;
}
);
note = backslash;
unicode = 92;
},
{
glyphname = bracketright;
kernLeft = bracketright;
layers = (
{
layerId = m01;
shapes = (
{
closed = 1;
nodes = (
(270.8,741.13,ls),
(270.8,716.31,o),
(300.96,693.4,o),
(323.58,693.4,cs),
(346.2,693.4,o),
(451.75,693.4,o),
(451.75,693.4,c),
(395.21,580.32,o),
(255.74,229.75,o),
(233.12,131.74,c),
(157.72,116.66,o),
(18.25,90.27,o),
(18.25,33.73,cs),
(18.25,3.58,o),
(135.1,-11.49,o),
(195.42,-11.49,cs),
(255.73,-11.49,o),
(316.04,3.58,o),
(361.28,41.28,cs),
(406.5,78.97,o),
(610.07,587.86,o),
(610.07,716.02,cs),
(610.07,779.17,o),
(527.71,782.35,o),
(444.15,780.11,cs),
(358.1,777.81,o),
(270.79,772.57,o),
(270.79,741.14,cs)
);
}
);
width = 558;
}
);
note = bracketright;
unicode = 93;
},
{
glyphname = underscore;
kernLeft = period;
layers = (
{
layerId = m01;
shapes = (
{
closed = 1;
nodes = (
(-95.52,87.14,ls),
(-95.52,24.94,o),
(-56.59,4.72,o),
(-18.44,4.72,cs),
(19.72,4.72,o),
(205.16,16.17,o),
(240.26,16.17,cs),
(275.36,16.17,o),
(482.93,7.01,o),
(510.41,7.01,cs),
(537.88,7.01,o),
(589.01,34.48,o),
(589.01,77.98,cs),
(589.01,130.64,o),
(534.82,151.24,o),
(497.44,157.35,cs),
(459.78,163.5,o),
(263.16,162.7,o),
(242.55,162.7,cs),
(221.96,162.7,o),
(52.92,171.91,o),
(12.86,164.22,cs),
(-42.84,153.53,o),
(-95.5,119.12,o),
(-95.5,87.14,cs)
);
}
);
width = 738;
}
);
note = underscore;
unicode = 95;
},
{
glyphname = a;
kernLeft = a;
kernRight = a;
layers = (
{
layerId = m01;
shapes = (
{
closed = 1;
nodes = (
(507.29,564.98,ls),
(494.49,564.98,o),
(480.34,555.42,o),
(465.56,538.99,c),
(446.72,557.38,o),
(368.68,573.8,o),
(331.21,573.8,cs),
(140.48,573.8,o),
(-5.09,314.15,o),
(-5.09,176.32,cs),
(-5.09,76.94,o),
(36.58,20.85,o),
(97.49,20.85,cs),
(136.23,20.85,o),
(242.85,122.5,o),
(301.43,187.56,c),
(293.23,155.33,o),
(275.91,77.03,o),
(275.91,62.48,cs),
(275.91,27.08,o),
(286.01,19.86,o),
(307.32,19.86,cs),
(357.79,19.86,o),
(391.31,168.02,o),
(436.26,319.34,cs),
(469.91,432.63,o),
(539.82,514.52,o),
(539.82,533.59,cs),
(539.82,548.45,o),
(526.36,564.99,o),
(507.3,564.99,cs)
);
},
{
closed = 1;
nodes = (
(143.98,139.46,o),
(142.37,150.67,o),
(142.37,165.1,cs),
(142.37,331.79,o),
(311.98,488.86,o),
(336.02,503.28,cs),
(349.75,511.53,o),
(416.87,507.75,o),
(441.82,507.76,c),
(408.79,458.05,o),
(361.72,382.33,o),
(332.99,306.63,c),
(277.68,228.82,o),
(186.53,139.46,o),
(156.8,139.46,cs)
);
}
);
width = 489;
}
);
note = a;
unicode = (97,224,225,226,227,228,229);
},
{
glyphname = b;
kernLeft = K;
kernRight = b;
layers = (
{
layerId = m01;
shapes = (
{
closed = 1;
nodes = (
(399.8,564.41,ls),
(362.83,564.41,o),
(321.61,543.32,o),
(262.87,498.8,c),
(308.03,613.7,o),
(350.02,692.29,o),
(350.02,722.39,cs),
(350.02,762.47,o),
(317.64,779.64,o),
(285.31,779.64,cs),
(179.13,779.64,o),
(-27.78,106.51,o),
(-27.78,56.73,cs),
(-27.78,21.89,o),
(6.57,-4.66,o),
(29.47,-4.66,cs),
(61.41,-4.66,o),
(88.21,23.98,o),
(112.36,69.6,c),
(134.59,43.59,o),
(170.54,10.27,o),
(208.99,10.27,cs),
(363.28,10.27,o),
(492.7,287.34,o),
(492.7,413.42,cs),
(492.7,539.51,o),
(446.24,564.4,o),
(399.79,564.4,cs)
);
},
{
closed = 1;
nodes = (
(186.95,96.54,o),
(160.97,117.15,o),
(143.1,139.26,c),
(169.03,207.28,o),
(192.82,291.36,o),
(218.39,373.17,cs),
(219.24,375.9,o),
(220.11,378.58,o),
(220.97,381.3,c),
(277.99,430.99,o),
(355.99,493.07,o),
(389.84,493.07,cs),
(419.7,493.07,o),
(426.33,454.91,o),
(426.33,405.13,cs),
(426.33,265.77,o),
(260.43,96.54,o),
(204.02,96.54,cs)
);
}
);
width = 491;
}
);
note = b;
unicode = 98;
},
{
glyphname = c;
kernLeft = c;
kernRight = c;
layers = (
{
layerId = m01;
shapes = (
{
closed = 1;
nodes = (
(317.79,575.46,ls),
(168.95,575.46,o),
(-6.61,346.47,o),
(-6.61,159.46,cs),
(-6.61,83.12,o),
(32.83,10.61,o),
(139.69,10.61,cs),
(246.54,10.61,o),
(299.98,111.11,o),
(299.98,120.02,cs),
(299.98,128.92,o),
(293.62,132.74,o),
(285.98,132.74,cs),
(260.53,132.74,o),
(200.75,79.3,o),
(171.49,79.3,cs),
(160.05,79.3,o),
(156.22,93.29,o),
(156.22,127.64,cs),
(156.22,284.12,o),
(319.06,515.65,o),
(354.68,515.65,cs),
(386.49,515.65,o),
(408.11,440.59,o),
(427.19,440.59,cs),
(446.27,440.59,o),
(455.18,468.58,o),
(455.18,491.48,cs),
(455.18,583.06,o),
(317.79,575.44,o),
(317.79,575.44,c)
);
}
);
width = 398;
}
);
note = c;
unicode = (99,231);
},
{
glyphname = d;
kernLeft = d;
kernRight = A;
layers = (
{
layerId = m01;
shapes = (
{
closed = 1;
nodes = (
(541.01,774.25,o),
(475.33,651.24,o),
(419.85,512.57,c),
(387.62,542.34,o),
(319.83,566.47,o),
(274.41,566.47,cs),
(120.13,566.47,o),
(-12.13,240.56,o),
(-12.13,174.44,cs),
(-12.13,75.26,o),
(31.96,15.43,o),
(121.7,15.43,cs),
(189.11,15.43,o),
(250.33,64.92,o),
(298.11,121.58,c),
(299.03,67,o),
(308.77,4.41,o),
(378.32,4.41,cs),
(452.32,4.41,o),
(491.04,183.53,o),
(553.08,358.64,cs),
(611.84,524.48,o),
(670.1,689.96,o),
(670.1,716.03,cs),
(670.1,753.82,o),
(627.85,771.87,o),
(597.17,772.71,cs)
);
},
{
closed = 1;
nodes = (
(221.25,123.13,o),
(136.09,106.75,o),
(124.85,106.75,cs),
(112.26,106.75,o),
(96.52,109.9,o),
(96.52,168.15,cs),
(96.52,226.41,o),
(205.15,500.34,o),
(276,500.34,cs),
(340.92,500.34,o),
(382.82,473.8,o),
(399.73,460.51,c),
(369.65,380.04,o),
(343.71,298.89,o),
(325.55,237.28,c)
);
}
);
width = 575;
}
);
note = d;
unicode = 100;
},
{
glyphname = e;
kernLeft = e;
kernRight = e;
layers = (
{
layerId = m01;
shapes = (
{
closed = 1;
nodes = (
(275.37,223.91,o),
(426.24,389.29,o),
(426.24,509.6,cs),
(426.24,583.3,o),
(321.04,581.63,o),
(261.41,581.63,cs),
(128.35,581.63,o),
(-12.9,245.3,o),
(-12.9,148.84,cs),
(-12.9,-8.32,o),
(94.76,2.38,o),
(94.76,2.38,c),
(159.73,2.38,o),
(283.49,58.07,o),
(283.49,85.92,cs),
(283.49,113.77,o),
(252.55,109.99,o),
(252.55,109.99,c),
(252.55,109.99,o),
(199.95,88.33,o),
(181.39,88.33,cs),
(162.83,88.33,o),
(144.26,106.78,o),
(144.26,141.61,cs),
(144.26,148.99,o),
(154.01,182.42,o),
(168.35,226.32,c),
(169.01,226.23,o),
(169.63,226.14,o),
(170.36,226.12,cs)
);
},
{
closed = 1;
nodes = (
(271.9,496.93,ls),
(279.01,510.69,o),
(309.09,515.52,o),
(319.93,515.52,cs),
(330.77,515.52,o),
(368.7,509.02,o),
(368.7,489.51,cs),
(368.7,434.77,o),
(269.85,294,o),
(182.67,269.17,c),
(212.66,357.02,o),
(252.38,463.22,o),
(271.88,497.08,cs)
);
}
);
width = 392;
}
);
note = e;
unicode = (101,232,233,234,235);
},
{
glyphname = f;
kernLeft = M;
kernRight = f;
layers = (
{
layerId = m01;
shapes = (
{
closed = 1;
nodes = (
(353.61,667.3,ls),
(412.03,716.31,o),
(513.81,663.53,o),
(513.81,729.49,cs),
(513.81,759.65,o),
(457.27,767.18,o),
(419.58,767.18,cs),
(368.69,767.18,o),
(288.33,756.67,o),
(238.64,716.3,cs),
(178.33,667.29,o),
(-8.26,269.61,o),
(-8.26,94.32,cs),
(-8.26,15.16,o),
(25.67,-7.45,o),
(44.52,-7.45,cs),
(104.56,-7.45,o),
(172.73,156.54,o),
(230.6,322.99,c),
(290.72,325.2,o),
(396.97,335.28,o),
(396.97,380.81,cs),
(396.97,418.22,o),
(325.47,427.37,o),
(266.43,429.43,c),
(306.48,551.31,o),
(338.27,654.43,o),
(353.62,667.29,cs)
);
}
);
width = 364;
}
);
note = f;
unicode = 102;
},
{
glyphname = g;
kernLeft = g;
kernRight = g;
layers = (
{
layerId = m01;
shapes = (
{
closed = 1;
nodes = (
(459.9,607.73,ls),
(430.76,607.73,o),
(401.63,571.31,o),
(374.45,523.71,c),
(350.58,538.9,o),
(314.08,554.96,o),
(266.4,554.96,cs),
(128.18,554.96,o),
(-6.26,386.59,o),
(-6.26,247.11,cs),
(-6.26,107.64,o),
(47.78,18.77,o),
(110.6,18.77,cs),
(133.02,18.77,o),
(160.24,29.83,o),
(185.98,44.04,c),
(163.77,-13.45,o),
(142.77,-60.22,o),
(129.45,-70.44,cs),
(96.74,-95.52,o),
(49.03,-99.34,o),
(37.73,-101.85,cs),
(26.42,-104.36,o),
(16.37,-120.7,o),
(16.37,-125.72,cs),
(16.37,-130.75,o),
(10.09,-197.34,o),
(94.27,-197.34,cs),
(178.45,-197.34,o),
(242.54,-154.62,o),
(287.77,-110.64,cs),
(333,-66.66,o),
(502.63,527.31,o),
(502.63,556.22,cs),
(502.63,585.12,o),
(488.8,607.74,o),
(459.91,607.74,cs)
);
},
{
closed = 1;
nodes = (
(292.36,354.97,o),
(246.66,211.96,o),
(216.5,126.91,c),
(183.46,106.75,o),
(159.72,99.2,o),
(130.72,99.2,cs),
(89,99.2,o),
(65.79,213.3,o),
(75.06,274.8,cs),
(82.74,325.74,o),
(168.42,495.63,o),
(257.63,495.63,cs),
(302.04,495.63,o),
(330.64,482.4,o),
(348.1,473.01,c),
(328.4,433.74,o),
(315.08,402.37,o),
(299.09,369,cs)
);
}
);
width = 497;
}
);
note = g;
unicode = 103;
},
{
glyphname = h;
kernLeft = K;
kernRight = h;
layers = (
{
layerId = m01;
shapes = (
{
closed = 1;
nodes = (
(462.94,566.72,ls),
(414.79,566.72,o),
(347.35,536.73,o),
(293.11,505.23,c),
(348.97,656.69,o),
(392.51,781.11,o),
(312.28,781.11,cs),
(287.88,781.11,o),
(261.3,790.39,o),
(231.51,749.78,cs),
(118.02,595.01,o),
(-6.48,172.93,o),
(-6.48,98.35,cs),
(-6.48,23.03,o),
(26.97,-3.66,o),
(57.12,-3.66,cs),
(160.98,-3.66,o),
(184.91,195.35,o),
(250.33,387.12,c),
(316.26,440.97,o),
(401.87,492.85,o),
(438.3,492.85,cs),
(464.37,492.85,o),
(470.17,478.36,o),
(470.17,434.9,cs),
(470.17,342.19,o),
(329.66,78.55,o),
(329.66,51.03,cs),
(329.66,14.81,o),
(347.04,0.33,o),
(370.21,0.33,cs),
(423.81,0.33,o),
(542.6,326.26,o),
(542.6,436.36,cs),
(542.6,503,o),
(533.91,566.73,o),
(462.93,566.73,cs)
);
}
);
width = 549;
}
);
note = h;
unicode = 104;
},
{
glyphname = i;
kernLeft = i;
kernRight = i;
layers = (
{
layerId = m01;
shapes = (
{
closed = 1;
nodes = (
(222.09,532.76,ls),
(129.7,530.57,o),
(-5.64,138.9,o),
(-8.8,74.76,cs),
(-12.09,7.94,o),
(15.71,-10.99,o),
(52.45,-10.99,cs),
(119.36,-10.99,o),
(186.27,227.44,o),
(201.34,268.9,cs),
(216.42,310.37,o),
(271.08,430.99,o),
(271.08,466.8,cs),
(271.08,502.6,o),
(257.88,532.76,o),
(222.07,532.76,cs)
);
},
{
closed = 1;
nodes = (
(245.59,684.68,o),
(187.94,657.83,o),
(187.94,630.19,cs),
(187.94,612.03,o),
(199,581.24,o),
(224.27,581.24,cs),
(249.54,581.24,o),
(329.29,593.87,o),
(329.29,643.62,cs),
(329.28,693.36,o),
(294.54,684.68,o),
(270.06,684.68,cs)
);
}
);
width = 256;
}
);
note = i;
unicode = (105,236,237,238,239);
},
{
glyphname = j;
kernLeft = j;
kernRight = j;
layers = (
{
layerId = m01;
shapes = (
{
closed = 1;
nodes = (
(203.31,565.53,ls),
(99.65,565.53,o),
(-13.44,58.52,o),
(-77.52,-67.76,c),
(-102.03,-50.79,o),
(-192.49,-31.94,o),
(-192.49,-54.56,cs),
(-192.49,-77.18,o),
(-156.68,-165.76,o),
(-36.06,-165.76,cs),
(84.55,-165.76,o),
(267.38,463.75,o),
(267.38,495.78,cs),
(267.38,527.83,o),
(246.65,565.52,o),
(203.3,565.52,cs)
);
},
{
closed = 1;
nodes = (
(271.15,701.22,ls),
(212.73,701.22,o),
(169.38,682.38,o),
(169.38,657.87,cs),
(169.38,620.18,o),
(190.11,599.45,o),
(201.42,599.45,cs),
(212.73,599.45,o),
(280.58,603.22,o),
(297.54,616.41,cs),
(314.51,629.61,o),
(329.59,701.23,o),
(271.16,701.23,cs)
);
}
);
width = 249;
}
);
note = j;
unicode = 106;
},
{
glyphname = k;
kernLeft = E;
kernRight = k;
layers = (
{
layerId = m01;
shapes = (
{
closed = 1;
nodes = (
(522.21,512.75,ls),
(522.21,526.58,o),
(513.41,545.42,o),
(488.29,545.42,cs),
(451.09,545.42,o),
(319.02,451.8,o),
(232.42,384.64,c),
(233.52,387.98,o),
(234.62,391.31,o),
(235.74,394.64,cs),
(287.5,550.77,o),
(338.77,692.03,o),
(338.77,703.74,cs),
(338.77,728.88,o),
(348.82,774.1,o),
(298.56,774.1,cs),
(190.5,774.1,o),
(-18.08,153.39,o),
(-18.08,118.21,cs),
(-18.08,83.03,o),
(-3.01,20.2,o),
(32.18,20.2,cs),
(90.36,20.2,o),
(140.99,125.98,o),
(187.26,253.04,c),
(236.43,103.84,o),
(308.8,18.95,o),
(341.28,18.95,cs),
(361.38,18.95,o),
(378.97,32.78,o),
(378.97,55.39,cs),
(378.97,73.91,o),
(290.55,230.52,o),
(250.21,310.16,c),
(363.21,380.14,o),
(522.21,484.62,o),
(522.21,512.77,cs)
);
}
);
width = 484;
}
);
note = k;
unicode = 107;
},
{
glyphname = l;
kernLeft = E;
kernRight = l;
layers = (
{
layerId = m01;
shapes = (
{
closed = 1;
nodes = (
(158.01,136.87,o),
(357.8,664.61,o),
(357.8,698.53,cs),
(357.8,732.45,o),
(340.84,770.15,o),
(308.79,770.15,cs),
(222.1,770.15,o),
(-4.08,265.04,o),
(-4.08,118.02,cs),
(-4.08,52.06,o),
(52.47,4.94,o),
(88.28,4.94,cs),
(124.09,4.94,o),
(263.57,55.83,o),
(263.57,91.64,cs),
(263.57,127.45,o),
(205.14,114.25,o),
(142.93,99.18,c)
);
}
);
width = 331;
}
);
note = l;
unicode = 108;
},
{
glyphname = m;
kernLeft = m;
kernRight = m;
layers = (
{
layerId = m01;
shapes = (
{
closed = 1;
nodes = (
(682.5,538.33,ls),
(630.72,538.33,o),
(559.35,509.57,o),
(490.14,451,c),
(488.49,528.7,o),
(468.64,547.76,o),
(448.8,547.76,cs),
(404.17,547.76,o),
(329.37,504.61,o),
(268.12,448.69,c),
(277.81,479.82,o),
(284.82,506.52,o),
(284.82,519.49,cs),
(284.82,559.07,o),
(265.97,583.57,o),
(220.74,583.57,cs),
(117.07,583.57,o),
(-33.71,104.84,o),
(-33.71,48.31,cs),
(-33.71,-8.24,o),
(0.21,-21.43,o),
(24.71,-21.43,cs),
(94.45,-21.43,o),
(177.37,148.2,o),
(211.31,280.14,cs),
(213.39,288.28,o),
(218.95,304.62,o),
(226.13,325.18,c),
(287.47,389.35,o),
(389.37,479.93,o),
(409.2,479.93,cs),
(458.21,479.93,o),
(264.08,82.25,o),
(264.08,50.21,cs),
(264.08,18.16,o),
(275.39,-6.34,o),
(296.12,-6.34,cs),
(356.21,-6.34,o),
(447.75,219.04,o),
(479.19,361.07,c),
(537.81,413.46,o),
(630.49,481.82,o),
(663.65,481.82,cs),
(723.96,481.82,o),
(504.38,68.12,o),
(504.38,39.85,cs),
(504.38,11.58,o),
(524.17,-2.56,o),
(541.14,-2.56,cs),
(588.26,-2.56,o),
(740.92,357.43,o),
(740.92,481.82,cs),
(740.92,519.5,o),
(708.88,538.36,o),
(682.5,538.36,cs)
);
}
);
width = 726;
}
);
note = m;
unicode = 109;
},
{
glyphname = n;
kernLeft = n;
kernRight = n;
layers = (
{
layerId = m01;
shapes = (
{
closed = 1;
nodes = (
(415.62,560.94,o),
(330.96,506.06,o),
(262.8,451.9,c),
(273.2,479.55,o),
(280.4,502.56,o),
(280.4,514.29,cs),
(280.4,548.07,o),
(236.97,575.41,o),
(201.59,575.41,cs),
(122.77,575.41,o),
(-17.15,150.82,o),
(-17.15,112.22,cs),
(-17.15,62.36,o),
(-5.89,1.24,o),
(48.79,1.24,cs),
(116.34,1.24,o),
(172.62,228.01,o),
(196.76,290.73,cs),
(201.71,303.62,o),
(208.17,319.24,o),
(215.29,336.2,c),
(281.84,394.08,o),
(415.39,482.12,o),
(431.57,482.12,cs),
(466.95,482.12,o),
(280.38,59.15,o),
(280.38,33.41,cs),
(280.38,7.68,o),
(291.64,-6.8,o),
(304.5,-6.8,cs),
(368.83,-6.8,o),
(507.15,404.93,o),
(507.15,511.08,cs),
(507.15,531.98,o),
(491.06,560.94,o),
(465.33,560.94,cs)
);
}
);
width = 489;
}
);
note = n;
unicode = (110,241);
},
{
glyphname = o;
kernLeft = o;
kernRight = o;
layers = (
{
layerId = m01;
shapes = (
{
closed = 1;
nodes = (
(340.2,570.55,ls),
(142.93,570.55,o),
(-25.44,233.8,o),
(-25.44,149.62,cs),
(-25.44,65.43,o),
(43.66,0.1,o),
(136.65,0.1,cs),
(273.61,0.1,o),
(458.32,297.9,o),
(458.32,451.19,cs),
(458.32,536.62,o),
(389.22,570.56,o),
(340.21,570.56,cs)
);
},
{
closed = 1;
nodes = (
(167.96,83.03,o),
(112.79,105.64,o),
(112.79,164.69,cs),
(112.79,269.11,o),
(307.79,467.51,o),
(372.99,467.51,cs),
(385.56,467.51,o),
(399.26,465.53,o),
(399.26,409.74,cs),
(399.26,327.25,o),
(235.69,83.03,o),
(199.37,83.03,cs)
);
}
);
width = 443;
}
);
note = o;
unicode = (111,242,243,244,245,246,248);
},
{
glyphname = p;
kernLeft = p;
kernRight = p;
layers = (
{
layerId = m01;
shapes = (
{
closed = 1;
nodes = (
(347.71,531.25,o),
(294.09,503.83,o),
(254.43,475.32,c),
(261.06,494.32,o),
(265.12,507.08,o),
(265.12,509.85,cs),
(265.12,523.61,o),
(245.25,555.7,o),
(220.8,555.7,cs),
(118.39,555.7,o),
(-110.91,-97.01,o),
(-110.91,-133.7,cs),
(-110.91,-170.39,o),
(-87.99,-211.66,o),
(-34.48,-211.66,cs),
(7.88,-211.66,o),
(65.48,-65.62,o),
(105.17,50.9,c),
(125.33,28.75,o),
(155.19,13.15,o),
(199.39,13.15,cs),
(352.25,13.15,o),
(499.01,305,o),
(499.01,399.79,cs),
(499.01,494.56,o),
(433.28,531.25,o),
(382.84,531.25,cs)
);
},
{
closed = 1;
nodes = (
(150.4,65.02,o),
(133.83,78.57,o),
(120.81,97.93,c),
(134.76,140.92,o),
(144.91,174.76,o),
(148.96,187.31,cs),
(157.07,212.46,o),
(189.29,297.87,o),
(217.75,374.56,c),
(268.54,412.63,o),
(352.89,463.99,o),
(381.32,463.99,cs),
(418,463.99,o),
(433.29,430.35,o),
(433.29,392.14,cs),
(433.29,295.84,o),
(281.95,65.02,o),
(170.37,65.02,cs)
);
}
);
width = 489;
}
);
note = p;
unicode = 112;
},
{
glyphname = q;
kernLeft = c;
kernRight = q;
layers = (
{
layerId = m01;
shapes = (
{
closed = 1;
nodes = (
(539.76,514.79,o),
(512.12,551.23,o),
(488.24,551.23,cs),
(470.41,551.23,o),
(447.27,548.84,o),
(423.68,521.93,c),
(403.56,545.39,o),
(373.73,562.54,o),
(327.41,562.54,cs),
(159.04,562.54,o),
(-8.07,349.62,o),
(-8.07,143.55,cs),
(-8.07,45.54,o),
(81.14,9.1,o),
(131.4,9.1,cs),
(149.66,9.1,o),
(175.55,10.1,o),
(201.12,11.36,c),
(181.98,-51.57,o),
(170.35,-98,o),
(170.35,-111.53,cs),
(170.35,-195.71,o),
(209.3,-233.41,o),
(264.59,-233.41,cs),
(319.88,-233.41,o),
(404.06,-191.95,o),
(404.06,-164.3,cs),
(404.06,-136.66,o),
(343.75,-145.45,o),
(319.88,-146.71,c),
(319.88,-146.71,o),
(424.17,141.03,o),
(440.51,182.5,cs),
(456.85,223.96,o),
(539.77,396.68,o),
(539.77,455.73,cs)
);
},
{
closed = 1;
nodes = (
(158.15,79.31,o),
(91.2,102.55,o),
(91.2,141.04,cs),
(91.2,284.28,o),
(219.36,502.23,o),
(324.91,502.23,cs),
(351.6,502.23,o),
(373.21,488.06,o),
(389.91,470.12,c),
(328.82,361.72,o),
(262.72,202.66,o),
(219.19,68.73,c)
);
}
);
width = 526;
}
);
note = q;
unicode = 113;
},
{
glyphname = r;
kernLeft = r;
kernRight = r;
layers = (
{
layerId = m01;
shapes = (
{
closed = 1;
nodes = (
(463.82,544.39,ls),
(394.69,544.39,o),
(335.1,502.15,o),
(275.33,466.31,c),
(289.77,503.86,o),
(298.63,528.9,o),
(298.63,532.78,cs),
(298.63,552.18,o),
(282.77,585.69,o),
(221.05,585.69,cs),
(152.28,585.69,o),
(-32.92,145.18,o),
(-32.92,72.88,cs),
(-32.92,18.85,o),
(-7.74,-17.98,o),
(29.29,-17.98,cs),
(106.18,-17.98,o),
(187.86,275.05,o),
(230.13,352.92,c),
(294.25,399.31,o),
(382.9,450.66,o),
(412.83,457.46,cs),
(451.63,466.28,o),
(510.47,475.01,o),
(510.47,491.48,cs),
(510.47,502.05,o),
(511.45,544.38,o),
(463.83,544.38,cs)
);
}
);
width = 421;
}
);
note = r;
unicode = 114;
},
{
glyphname = s;
kernLeft = s;
kernRight = s;
layers = (
{
layerId = m01;
shapes = (
{
closed = 1;
nodes = (
(277.73,573.29,ls),
(189.62,573.29,o),
(73.9,494.39,o),
(73.9,411.54,cs),
(73.9,345.79,o),
(123.56,145.29,o),
(123.56,125.56,cs),
(123.56,105.83,o),
(86.74,76.91,o),
(65.7,76.91,cs),
(24.93,76.91,o),
(10.47,151.87,o),
(-11.89,151.87,cs),
(-26.36,151.87,o),
(-40.82,126.89,o),
(-40.82,101.9,cs),
(-40.82,76.92,o),
(17.04,5.9,o),
(93.31,5.9,cs),
(169.58,5.9,o),
(262.95,47.98,o),
(262.95,146.61,cs),
(262.95,234.72,o),
(210.66,402.34,o),
(210.66,437.85,cs),
(210.66,473.35,o),
(242.22,508.86,o),
(265.89,508.86,cs),
(289.56,508.86,o),
(343.48,437.85,o),
(373.72,437.85,cs),
(403.97,437.85,o),
(411.85,462.83,o),
(411.85,478.62,cs),
(411.85,494.4,o),
(332.95,573.3,o),
(277.72,573.3,cs)
);
}
);
width = 366;
}
);
note = s;
unicode = 115;
},
{
glyphname = t;
kernLeft = t;
kernRight = t;
layers = (
{
layerId = m01;
shapes = (
{
closed = 1;
nodes = (
(328.8,497.68,ls),
(309.55,497.68,o),
(287.69,496.73,o),
(266.64,495.42,c),
(300.32,580.61,o),
(337.6,677.46,o),
(337.6,688.67,cs),
(337.6,707.51,o),
(331.32,735.15,o),
(299.91,735.15,cs),
(183.06,735.15,o),
(2.12,267.73,o),
(2.12,158.42,cs),
(2.12,71.72,o),
(36.04,3.87,o),
(100.12,3.87,cs),
(164.21,3.87,o),
(297.4,31.51,o),
(297.4,72.97,cs),
(297.4,85.54,o),
(283.57,103.75,o),
(266.61,103.75,cs),
(249.65,103.75,o),
(181.81,83.02,o),
(169.24,83.02,cs),
(156.67,83.02,o),
(130.29,91.82,o),
(130.29,110.66,cs),
(130.29,140.82,o),
(199.39,328.04,o),
(215.72,368.25,cs),
(218.85,375.95,o),
(225.26,391.77,o),
(233.56,412.43,c),
(278.38,410.81,o),
(348.94,408.63,o),
(396.66,416,cs),
(435.27,421.96,o),
(449.43,442.69,o),
(449.43,451.18,cs),
(449.43,480.08,o),
(391.64,497.67,o),
(328.81,497.67,cs)
);
}
);
width = 401;
}
);
note = t;
unicode = 116;
},
{
glyphname = u;
kernLeft = u;
kernRight = u;
layers = (
{
layerId = m01;
shapes = (
{
closed = 1;
nodes = (
(532.33,563.57,ls),
(472.07,563.57,o),
(373.6,235.24,o),
(360.25,195.8,c),
(279.05,140.17,o),
(217.83,95.82,o),
(180.39,95.82,cs),
(169.08,95.82,o),
(154.86,113.44,o),
(154.86,145.81,cs),
(154.86,173.66,o),
(273.55,486.4,o),
(273.55,512.78,cs),
(273.55,539.17,o),
(254.7,584.4,o),
(198.16,584.4,cs),
(96.38,584.4,o),
(-7.22,159.9,o),
(-7.22,125.98,cs),
(-7.22,62.26,o),
(9.8,-2.18,o),
(87.02,-2.18,cs),
(147.9,-2.18,o),
(240.38,54.15,o),
(331.12,108.24,c),
(319.26,71.6,o),
(311.84,46.63,o),
(311.84,41.38,cs),
(311.84,15.85,o),
(321.17,-7.36,o),
(357.14,-7.36,cs),
(410.28,-7.36,o),
(445.98,142.13,o),
(490.2,282.76,cs),
(529.04,406.24,o),
(584.58,509.66,o),
(584.58,518.34,cs),
(584.58,536.91,o),
(557.86,563.6,o),
(532.33,563.6,cs)
);
}
);
width = 547;
}
);
note = u;
unicode = (117,249,250,251,252);
},
{
glyphname = v;
kernLeft = v;
kernRight = v;
layers = (
{
layerId = m01;
shapes = (
{
closed = 1;
nodes = (
(547.75,579.53,o),
(288.91,220.17,o),
(228.6,137.24,c),
(228.6,137.24,o),
(241.17,486.55,o),
(231.11,526.75,cs),
(221.07,566.96,o),
(199.16,603.87,o),
(151.9,603.87,cs),
(119.24,603.87,o),
(87.98,563.23,o),
(86.04,529,cs),
(79.29,409.67,o),
(80.98,162.56,o),
(80.98,91.64,cs),
(80.98,58.99,o),
(103.49,-4.06,o),
(154.15,-4.06,cs),
(255.47,-4.06,o),
(388.96,222.58,o),
(434.47,285.27,cs),
(494.14,367.45,o),
(644.99,529.56,o),
(644.99,556.58,cs),
(644.98,568.96,o),
(626.98,579.52,o),
(610.58,579.52,cs)
);
}
);
width = 553;
}
);
note = v;
unicode = 118;
},
{
glyphname = w;
kernLeft = w;
kernRight = w;
layers = (
{
layerId = m01;
shapes = (
{
closed = 1;
nodes = (
(695.24,566.85,o),
(634.35,455.19,o),
(555.75,333.3,cs),
(517.31,273.67,o),
(474.34,213.65,o),
(437.3,164.32,c),
(439.88,246.68,o),
(435,333.7,o),
(435,343.92,cs),
(435,363.82,o),
(417.75,381.07,o),
(387.23,381.07,cs),
(362.82,381.07,o),
(245.93,239.38,o),
(183.79,158.17,c),
(210.74,308.43,o),
(221.35,516.05,o),
(221.35,533.68,cs),
(221.35,561.54,o),
(196.14,590.73,o),
(162.96,590.73,cs),
(117.85,590.73,o),
(92.06,512.86,o),
(83.34,468.65,cs),
(47.52,286.85,o),
(13.01,2.87,o),
(119.17,2.87,cs),
(119.83,2.89,o),
(120.53,2.97,o),
(121.24,3.08,cs),
(123.26,3.32,o),
(125.25,3.93,o),
(127.19,4.88,cs),
(174.04,24.37,o),
(291.24,181.53,o),
(355.37,276.23,c),
(339.45,139.55,o),
(344.75,12.16,o),
(399.16,12.16,cs),
(401.05,12.16,o),
(402.82,12.57,o),
(404.54,13.28,cs),
(474.46,38.33,o),
(770.74,497.17,o),
(770.74,520.4,cs),
(770.74,544.3,o),
(749.51,566.86,o),
(725.61,566.86,cs)
);
}
);
width = 695;
}
);
note = w;
unicode = 119;
},
{
glyphname = x;
kernLeft = x;
kernRight = x;
layers = (
{
layerId = m01;
shapes = (
{
closed = 1;
nodes = (
(498.88,531.59,ls),
(498.88,542.9,o),
(487.57,565.52,o),
(470.6,565.52,cs),
(450.9,565.52,o),
(375.78,500.8,o),
(287.81,416.91,c),
(282.13,464.67,o),
(276.86,503.68,o),
(272.71,520.28,cs),
(259.51,573.05,o),
(206.75,595.67,o),
(174.71,595.67,cs),
(146.43,595.67,o),
(106.85,567.4,o),
(106.85,505.2,cs),
(106.85,476.83,o),
(113.92,370.39,o),
(132.52,263,c),
(25.71,153.62,o),
(-64.66,54.05,o),
(-64.66,43.44,cs),
(-64.66,18.93,o),
(-42.04,3.86,o),
(-25.08,3.86,cs),
(7.74,3.86,o),
(84.49,91.74,o),
(151.99,170.18,c),
(175.13,79.2,o),
(208.63,5.74,o),
(255.76,5.74,cs),
(304.76,5.74,o),
(329.73,89.25,o),
(323.61,120.71,cs),
(317.02,154.61,o),
(307.6,241.24,o),
(298.18,326.01,c),
(376.33,402.57,o),
(498.9,523.28,o),
(498.9,531.58,cs)
);
}
);
width = 428;
}
);
note = x;
unicode = 120;
},
{
glyphname = y;
kernLeft = y;
kernRight = v;
layers = (
{
layerId = m01;
shapes = (
{
closed = 1;
nodes = (
(538.5,572.85,o),
(394.19,368.55,o),
(272.62,192.57,c),
(267.21,294.81,o),
(256.9,492.84,o),
(256.9,516.02,cs),
(256.9,565.96,o),
(210.36,578.02,o),
(177.64,578.02,cs),
(146.64,578.02,o),
(107.08,543.58,o),
(107.08,522.91,cs),
(107.08,481.9,o),
(110.12,225.74,o),
(114.33,193.29,cs),
(124.64,113.78,o),
(142.31,54.88,o),
(152.61,36.01,c),
(112.98,-20.24,o),
(84.2,-49.67,o),
(77.52,-49.67,cs),
(63.74,-49.67,o),
(-15.19,-23.01,o),
(-15.19,-64.34,cs),
(-15.19,-88.45,o),
(45.72,-129.78,o),
(102.55,-129.78,cs),
(159.38,-129.78,o),
(391.23,221.53,o),
(417.06,259.42,cs),
(442.89,297.31,o),
(616.83,522.9,o),
(616.83,538.4,cs),
(616.83,553.9,o),
(599.61,572.85,o),
(580.67,572.85,cs)
);
}
);
width = 528;
}
);
note = y;
unicode = (121,253,255);
},
{
glyphname = z;
kernLeft = z;
kernRight = z;
layers = (
{
layerId = m01;
shapes = (
{
closed = 1;
nodes = (
(190,159.54,o),
(463.82,488.47,o),
(463.82,528.07,cs),
(463.82,565.96,o),
(405.27,572.84,o),
(281.27,572.84,cs),
(234.78,572.84,o),
(97.01,548.74,o),
(97.01,521.18,cs),
(97.01,510.85,o),
(109.06,476.41,o),
(138.34,476.41,cs),
(150.38,476.41,o),
(207.54,480.37,o),
(270.68,486.98,c),
(176.24,387.24,o),
(-45.94,122.02,o),
(-45.94,51.05,cs),
(-45.94,-7.5,o),
(-14.94,-7.5,o),
(98.72,-7.5,cs),
(165.88,-7.5,o),
(279.54,-0.62,o),
(279.54,27.16,cs),
(279.54,64.82,o),
(150.38,56.21,o),
(110.78,56.21,c)
);
}
);
width = 400;
}
);
note = z;
unicode = 122;
},
{
glyphname = braceleft;
layers = (
{
layerId = m01;
shapes = (
{
closed = 1;
nodes = (
(503.27,765.02,ls),
(463.06,765.02,o),
(380.13,744.92,o),
(342.44,707.22,cs),
(322.77,687.56,o),
(247.02,571.44,o),
(179.05,445.59,c),
(152.19,451.91,o),
(122.72,453.42,o),
(103.71,453.42,cs),
(60.99,453.42,o),
(18.27,428.28,o),
(18.27,403.16,cs),
(18.27,373.01,o),
(45.91,347.87,o),
(63.51,347.87,cs),
(70.22,347.87,o),
(97.84,346.79,o),
(129.4,348.37,c),
(89.93,265.74,o),
(61,188.56,o),
(61,141.82,cs),
(61,6.11,o),
(153.98,-16.5,o),
(224.35,-16.5,cs),
(294.71,-16.5,o),
(357.53,28.72,o),
(357.53,41.29,cs),
(357.53,53.86,o),
(342.46,66.42,o),
(332.4,71.45,cs),
(322.35,76.48,o),
(224.34,76.47,o),
(226.86,114.16,cs),
(229.37,151.87,o),
(422.87,629.33,o),
(445.49,649.43,cs),
(465.46,667.18,o),
(588.74,669.54,o),
(588.74,719.79,cs),
(588.74,744.93,o),
(543.5,765.03,o),
(503.3,765.03,cs)
);
}
);
width = 608;
}
);
note = braceleft;
unicode = 123;
},
{
glyphname = braceright;
kernLeft = parenright;
layers = (
{
layerId = m01;
shapes = (
{
closed = 1;
nodes = (
(566.4,423.77,ls),
(566.4,446.74,o),
(537.37,466.78,o),
(462.17,472.51,c),
(479.16,524.53,o),
(490.16,567.87,o),
(490.16,591.23,cs),
(490.16,721.93,o),
(396.22,779.11,o),
(322.7,779.11,cs),
(275.42,779.11,o),
(247.82,770.72,o),
(247.82,742.35,cs),
(247.82,701.39,o),
(323.91,687.93,o),
(342.82,672.18,cs),
(361.72,656.41,o),
(172.66,171.15,o),
(147.45,139.64,cs),
(122.25,108.13,o),
(18.26,104.98,o),
(18.26,67.17,cs),
(18.26,29.35,o),
(52.92,16.7,o),
(100.19,16.7,cs),
(147.45,16.7,o),
(245.14,29.36,o),
(289.26,79.77,cs),
(316.14,110.49,o),
(384.85,260.91,o),
(434.44,393.71,c),
(492.09,396.2,o),
(566.41,403.45,o),
(566.41,423.78,cs)
);
}
);
width = 586;
}
);
note = braceright;
unicode = 125;
},
{
glyphname = asciitilde;
layers = (
{
layerId = m01;
shapes = (
{
closed = 1;
nodes = (
(623.34,501.49,ls),
(582.7,501.49,o),
(481.99,395.63,o),
(399.5,395.63,cs),
(335.33,395.63,o),
(218.18,475.02,o),
(158.64,475.02,cs),
(62.7,475.02,o),
(-35.46,316.75,o),
(-5.69,316.75,cs),
(24.09,316.75,o),
(60.17,375.78,o),
(93.26,375.78,cs),
(158.64,375.78,o),
(201.02,283.18,o),
(379.66,283.18,cs),
(524.41,283.18,o),
(649.82,501.5,o),
(623.35,501.5,cs)
);
}
);
width = 647;
}
);
note = asciitilde;
unicode = 126;
},
{
glyphname = cent;
layers = (
{
layerId = m01;
shapes = (
{
closed = 1;
nodes = (
(307.2,573.11,o),
(480.6,587.86,o),
(480.6,614.25,cs),
(480.6,626.32,o),
(476.83,633.09,o),
(457.99,636.87,cs),
(451.88,638.08,o),
(430.69,638.12,o),
(402.85,636.57,c),
(413.07,672.02,o),
(428.34,728.35,o),
(428.34,748.43,cs),
(428.34,778.59,o),
(413.97,794.4,o),
(402.48,794.4,cs),
(363.35,794.4,o),
(307.59,679.05,o),
(294.64,624.75,c),
(263.77,619.41,o),
(235.38,612.26,o),
(216.74,602.93,cs),
(156.42,572.78,o),
(9.41,463.46,o),
(9.41,331.53,cs),
(9.41,231.84,o),
(73.99,166.61,o),
(149.46,140.67,c),
(135.61,106.31,o),
(118.03,63,o),
(118.03,41.64,cs),
(118.03,14.34,o),
(120.91,-10.08,o),
(153.95,-10.08,cs),
(186.99,-10.08,o),
(225.78,18.65,o),
(244.45,64.61,cs),
(253.34,86.49,o),
(262.21,111.61,o),
(269.09,131.94,c),
(357.48,146.74,o),
(442.89,199.1,o),
(442.89,218.44,cs),
(442.89,241.05,o),
(424.05,267.45,o),
(401.43,263.68,cs),
(378.82,259.91,o),
(205.42,263.68,o),
(194.12,323.99,cs),
(182.81,384.31,o),
(277.04,549.84,o),
(292.13,561.47,cs)
);
}
);
width = 500;
}
);
note = cent;
unicode = 162;
},
{
glyphname = sterling;
layers = (
{
layerId = m01;
shapes = (
{
closed = 1;
nodes = (
(515.68,749.95,o),
(475.46,762.51,o),
(382.49,762.51,cs),
(329.24,762.51,o),
(231.71,712.26,o),
(168.89,609.22,cs),
(128.22,542.54,o),
(39.72,202,o),
(48.66,95.73,c),
(-27.25,97.63,o),
(-112.57,94.69,o),
(-112.57,66.41,cs),
(-112.57,38.77,o),
(-97.5,16.15,o),
(-69.86,3.58,cs),
(-42.21,-8.98,o),
(138.72,13.63,o),
(171.39,8.61,cs),
(204.06,3.58,o),
(379.97,-1.44,o),
(415.15,-1.44,cs),
(450.33,-1.44,o),
(495.57,21.18,o),
(495.57,48.82,cs),
(495.57,76.46,o),
(455.36,101.6,o),
(440.28,101.6,cs),
(429.11,101.6,o),
(303.39,96.08,o),
(220.63,93.21,c),
(245.98,161.6,o),
(280.41,278.78,o),
(296.58,343,c),
(373.15,341.35,o),
(483,339.84,o),
(483,390.58,cs),
(483,422.76,o),
(388.22,438.96,o),
(313.36,433.02,c),
(325.99,515,o),
(346.44,644.08,o),
(369.92,669.53,cs),
(400.08,702.21,o),
(515.68,688.69,o),
(515.68,722.31,cs)
);
}
);
width = 535;
}
);
note = sterling;
unicode = 163;
},
{
glyphname = yen;
layers = (
{
layerId = m01;
shapes = (
{
closed = 1;
nodes = (
(615.29,710.27,o),
(383.18,474.51,o),
(329.3,413.29,c),
(297.46,516.15,o),
(211.74,731.68,o),
(189.7,731.68,cs),
(160.31,731.68,o),
(140.72,709.64,o),
(140.72,682.7,cs),
(140.72,655.77,o),
(231.33,479.42,o),
(260.73,408.4,c),
(255.93,400.85,o),
(251.02,392.22,o),
(246.07,382.76,c),
(175.83,384.37,o),
(59.9,383.93,o),
(59.9,354.51,cs),
(59.9,316,o),
(143.76,308.77,o),
(212.16,307.79,c),
(202.99,285.07,o),
(194.15,261.43,o),
(186.07,238.6,c),
(115.73,239.59,o),
(18.26,236.99,o),
(18.26,210.01,cs),
(18.26,173.21,o),
(94.81,164.97,o),
(161.29,163.45,c),
(151.57,131.6,o),
(145.62,108.24,o),
(145.62,102.25,cs),
(145.62,82.65,o),
(140.72,4.28,o),
(209.3,4.28,cs),
(252.43,4.28,o),
(291.22,81.17,o),
(319.12,164.13,c),
(390.04,166.07,o),
(473.81,173.39,o),
(473.81,200.21,cs),
(473.81,224.15,o),
(402.5,232.55,o),
(340.31,235.46,c),
(347.33,262.27,o),
(352.94,287.49,o),
(356.89,308.52,c),
(428.6,310.31,o),
(515.44,317.4,o),
(515.44,344.72,cs),
(515.44,368.27,o),
(446.45,376.78,o),
(385,379.82,c),
(438.06,430.45,o),
(573.24,559.75,o),
(598.72,587.19,cs),
(630.55,621.48,o),
(684.44,665.56,o),
(684.44,687.61,cs),
(684.44,702.31,o),
(672.19,729.24,o),
(650.15,721.89,cs)
);
}
);
width = 586;
}
);
note = yen;
unicode = 165;
},
{
glyphname = copyright;
layers = (
{
layerId = m01;
shapes = (
{
closed = 1;
nodes = (
(33.83,157.39,o),
(121.37,15.52,o),
(435.29,15.52,cs),
(723.19,15.52,o),
(815.63,235.87,o),
(815.63,365.67,cs),
(815.63,389.81,o),
(830.72,549.8,o),
(767.33,646.39,cs),
(715.49,725.4,o),
(595.27,773.17,o),
(504.71,773.17,cs),
(220.96,773.17,o),
(33.82,592.06,o),
(33.82,374.73,cs)
);
},
{
closed = 1;
nodes = (
(474.52,715.82,ls),
(540.92,715.82,o),
(652.61,700.73,o),
(703.93,637.34,cs),
(755.25,573.95,o),
(767.32,486.41,o),
(767.32,413.96,cs),
(767.32,341.51,o),
(716.02,221.95,o),
(637.52,145.31,cs),
(584.04,93.1,o),
(456.4,75.87,o),
(383.96,75.87,cs),
(223.98,75.87,o),
(115.31,226.8,o),
(115.31,377.73,cs),
(115.31,471.3,o),
(236.06,715.8,o),
(474.52,715.8,cs)
);
},
{
closed = 1;
nodes = (
(257.18,223.78,o),
(296.42,175.49,o),
(350.76,175.49,cs),
(405.09,175.49,o),
(525.84,241.89,o),
(525.84,263.03,cs),
(525.84,284.15,o),
(435.28,260.01,o),
(393.02,272.08,c),
(383.96,314.34,o),
(429.24,459.23,o),
(441.31,501.49,c),
(441.31,501.49,o),
(571.11,492.44,o),
(571.11,531.69,cs),
(571.11,570.93,o),
(456.41,589.04,o),
(420.19,589.04,cs),
(362.84,589.03,o),
(257.19,495.46,o),
(257.19,359.62,cs)
);
}
);
width = 878;
}
);
note = copyright;
unicode = 169;
},
{
glyphname = registered;
layers = (
{
layerId = m01;
shapes = (
{
closed = 1;
nodes = (
(21.19,189.9,o),
(63.45,96.34,o),
(105.71,57.09,cs),
(147.97,17.85,o),
(238.53,-24.41,o),
(323.05,-24.41,cs),
(646.03,-24.41,o),
(784.89,212.56,o),
(784.89,361.97,cs),
(784.89,423.9,o),
(783.17,553.28,o),
(727.54,627.6,cs),
(661.16,716.29,o),
(536.17,745.32,o),
(495.11,745.32,cs),
(132.31,745.32,o),
(21.2,431.39,o),
(21.2,310.65,cs)
);
},
{
closed = 1;
nodes = (
(543.41,675.9,o),
(600.77,648.73,o),
(627.93,618.55,cs),
(655.1,588.36,o),
(715.47,509.88,o),
(715.47,374.05,cs),
(715.47,201.83,o),
(597.47,60.11,o),
(336.27,60.11,cs),
(170.24,60.11,o),
(102.71,168.78,o),
(102.71,325.75,cs),
(102.71,434.41,o),
(225.35,675.9,o),
(477.02,675.9,cs)
);
},
{
closed = 1;
nodes = (
(539.04,344.44,o),
(564.67,445.62,o),
(564.67,468.55,cs),
(564.67,527.91,o),
(513.4,561.63,o),
(478.33,561.63,cs),
(458.06,561.63,o),
(432.84,554.87,o),
(413.59,545.26,c),
(405.87,563.82,o),
(384.65,579.31,o),
(365.32,579.31,cs),
(323.06,579.31,o),
(256.65,380.08,o),
(241.55,307.63,cs),
(226.46,235.2,o),
(211.37,117.47,o),
(262.68,117.47,cs),
(313.34,117.47,o),
(352.23,308.65,o),
(359.02,345.5,c),
(374.98,325.26,o),
(404.22,290.49,o),
(425.71,278.34,cs),
(456.73,260.81,o),
(517.45,204.15,o),
(517.45,204.15,c),
(517.45,204.15,o),
(541.73,193.36,o),
(544.43,214.93,cs),
(547.13,236.52,o),
(466.19,320.15,o),
(435.15,344.44,c)
);
},
{
closed = 1;
nodes = (
(381.09,417.3,o),
(397.8,462.53,o),
(407.92,494.8,c),
(441.43,504.85,o),
(491,513.94,o),
(506.66,507.68,cs),
(526.89,499.58,o),
(524.2,473.95,o),
(524.2,453.71,cs),
(524.2,433.48,o),
(503.96,410.54,o),
(475.63,398.4,cs),
(453.3,388.84,o),
(403.37,381.8,o),
(369.99,383.85,c)
);
}
);
width = 834;
}
);
note = registered;
unicode = 174;
},
{
glyphname = multiply;
layers = (
{
layerId = m01;
shapes = (
{
closed = 1;
nodes = (
(410.03,409.98,o),
(480.43,487.04,o),
(480.43,493.37,cs),
(480.43,508.18,o),
(453.28,545.21,o),
(426.12,545.21,cs),
(396.14,545.21,o),
(321.51,480.33,o),
(243.72,397.1,c),
(172.12,466.03,o),
(107.01,522.99,o),
(95.29,522.99,cs),
(68.14,522.99,o),
(28.63,515.58,o),
(28.63,456.71,cs),
(28.63,426.8,o),
(74.54,350.53,o),
(134.47,270.21,c),
(95.52,221.01,o),
(61.52,172.95,o),
(39.23,133.63,cs),
(14.28,89.61,o),
(13.84,42.95,o),
(26.17,36.63,cs),
(64.33,17.09,o),
(132.09,92.18,o),
(207.06,179.32,c),
(279.43,94.58,o),
(354.11,24.3,o),
(389.09,24.3,cs),
(468.1,24.3,o),
(473.03,103.29,o),
(453.29,165.01,cs),
(446.6,185.91,o),
(391.26,248.39,o),
(325.93,315.44,c)
);
}
);
width = 500;
}
);
note = multiply;
unicode = 215;
},
{
glyphname = divide;
layers = (
{
layerId = m01;
shapes = (
{
closed = 1;
nodes = (
(288.81,334.27,o),
(18.26,296.39,o),
(18.26,261.22,cs),
(18.26,180.05,o),
(315.87,231.46,o),
(369.98,231.46,cs),
(424.09,231.46,o),
(721.7,212.52,o),
(721.7,261.22,cs),
(721.7,309.93,o),
(494.43,334.27,o),
(391.62,334.27,cs)
);
},
{
closed = 1;
nodes = (
(502.55,391.09,o),
(545.84,459.18,o),
(545.84,493.9,cs),
(545.84,528.62,o),
(507.97,566.95,o),
(461.97,566.95,cs),
(429.5,566.95,o),
(356.45,531.77,o),
(356.45,491.2,cs),
(356.45,450.62,o),
(367.28,391.09,o),
(429.5,391.09,cs)
);
},
{
closed = 1;
nodes = (
(250.94,161.12,o),
(204.94,125.94,o),
(204.94,90.77,cs),
(204.94,55.6,o),
(223.88,-1.21,o),
(286.11,-1.21,cs),
(348.34,-1.21,o),
(394.33,47.49,o),
(394.33,85.37,cs),
(394.33,139.47,o),
(337.51,161.12,o),
(307.75,161.12,cs)
);
}
);
width = 742;
}
);
note = divide;
unicode = 247;
},
{
glyphname = quoteleft;
kernLeft = quoteleft;
layers = (
{
layerId = m01;
shapes = (
{
closed = 1;
nodes = (
(199.99,613.59,o),
(167.69,647.24,o),
(131.34,660.7,c),
(131.34,691.32,o),
(214.92,772.33,o),
(210.75,806.06,cs),
(209.79,813.84,o),
(207.46,830.28,o),
(194.6,830.28,cs),
(186.55,830.28,o),
(168.28,825.04,o),
(152.87,810.09,cs),
(96.15,755.02,o),
(11.55,660.69,o),
(11.55,579.92,cs),
(11.55,531.47,o),
(58.66,488.4,o),
(93.65,488.4,cs),
(164.98,488.4,o),
(199.99,546.28,o),
(199.99,579.93,cs)
);
}
);
width = 239;
}
);
note = quoteleft;
unicode = 8216;
},
{
glyphname = quoteright;
layers = (
{
layerId = m01;
shapes = (
{
closed = 1;
nodes = (
(151.26,762.22,o),
(116.26,704.34,o),
(116.26,670.69,cs),
(116.26,637.04,o),
(148.56,603.39,o),
(184.91,589.93,c),
(184.91,559.31,o),
(101.33,478.3,o),
(105.5,444.58,cs),
(106.46,436.79,o),
(108.77,420.35,o),
(121.65,420.35,cs),
(129.7,420.35,o),
(147.97,425.59,o),
(163.37,440.54,cs),
(220.1,495.61,o),
(304.7,589.94,o),
(304.7,670.71,cs),
(304.7,719.16,o),
(257.59,762.23,o),
(222.6,762.23,cs)
);
}
);
width = 220;
}
);
note = quoteright;
unicode = 8217;
},
{
glyphname = quotedblleft;
layers = (
{
layerId = m01;
shapes = (
{
closed = 1;
nodes = (
(216.49,781.87,o),
(214.18,798.31,o),
(201.3,798.31,cs),
(193.25,798.31,o),
(174.98,793.07,o),
(159.58,778.12,cs),
(102.85,723.05,o),
(18.25,628.72,o),
(18.25,547.96,cs),
(18.25,499.51,o),
(65.36,456.43,o),
(100.35,456.43,cs),
(171.69,456.43,o),
(206.69,514.31,o),
(206.69,547.96,cs),
(206.69,581.61,o),
(174.39,615.26,o),
(138.04,628.72,c),
(138.04,659.34,o),
(221.62,740.35,o),
(217.45,774.08,cs)
);
},
{
closed = 1;
nodes = (
(385.07,659.34,o),
(468.65,740.35,o),
(464.48,774.08,cs),
(463.52,781.86,o),
(461.19,798.3,o),
(448.33,798.3,cs),
(440.28,798.3,o),
(422.01,793.06,o),
(406.6,778.11,cs),
(349.88,723.04,o),
(265.28,628.71,o),
(265.28,547.95,cs),
(265.28,499.5,o),
(312.39,456.42,o),
(347.38,456.42,cs),
(418.71,456.42,o),
(453.71,514.3,o),
(453.71,547.95,cs),
(453.71,581.6,o),
(421.42,615.25,o),
(385.07,628.71,c)
);
}
);
width = 484;
}
);
note = quotedblleft;
unicode = 8220;
},
{
glyphname = quotedblright;
layers = (
{
layerId = m01;
shapes = (
{
closed = 1;
nodes = (
(321.5,762.22,o),
(286.5,704.34,o),
(286.5,670.69,cs),
(286.5,637.04,o),
(318.8,603.39,o),
(355.14,589.93,c),
(355.14,559.31,o),
(271.56,478.3,o),
(275.73,444.58,cs),
(276.69,436.79,o),
(279.02,420.35,o),
(291.88,420.35,cs),
(299.93,420.35,o),
(318.2,425.59,o),
(333.61,440.54,cs),
(390.33,495.61,o),
(474.93,589.94,o),
(474.93,670.71,cs),
(474.93,719.16,o),
(427.82,762.23,o),
(392.83,762.23,cs)
);
},
{
closed = 1;
nodes = (
(64.17,762.23,o),
(29.17,704.35,o),
(29.17,670.7,cs),
(29.17,637.05,o),
(61.47,603.4,o),
(97.82,589.94,c),
(97.82,559.32,o),
(14.24,478.31,o),
(18.41,444.59,cs),
(19.37,436.8,o),
(21.68,420.36,o),
(34.56,420.36,cs),
(42.61,420.36,o),
(60.88,425.6,o),
(76.28,440.55,cs),
(133.01,495.62,o),
(217.61,589.95,o),
(217.61,670.72,cs),
(217.61,719.17,o),
(170.5,762.24,o),
(135.51,762.24,cs)
);
}
);
width = 495;
}
);
note = quotedblright;
unicode = 8221;
},
{
glyphname = Euro;
layers = (
{
layerId = m01;
shapes = (
{
closed = 1;
nodes = (
(414.99,709.73,ls),
(457.71,724.81,o),
(568.29,728.89,o),
(568.29,742.4,cs),
(568.29,772.56,o),
(492.89,795.18,o),
(440.12,795.18,cs),
(374.77,795.18,o),
(274.25,772.56,o),
(221.48,722.3,cs),
(166.01,669.47,o),
(5.37,423.25,o),
(5.37,224.72,cs),
(5.37,144.3,o),
(30.5,20.61,o),
(118.45,20.61,cs),
(206.41,20.61,o),
(374.77,71.42,o),
(374.77,106.61,cs),
(374.77,141.79,o),
(236.56,164.41,o),
(216.45,182.01,c),
(215.01,195.06,o),
(224.04,239.36,o),
(239.6,297.25,c),
(335.56,308.25,o),
(462.72,307.98,o),
(462.72,342.84,cs),
(462.72,377.06,o),
(353.53,383.97,o),
(265.23,385.28,c),
(270.91,403.48,o),
(276.93,422.08,o),
(283.22,440.74,c),
(379.21,451.45,o),
(515.49,441.97,o),
(515.49,478.56,cs),
(515.49,513.54,o),
(401.33,519.99,o),
(312.07,521.07,c),
(345.77,608.95,o),
(383.15,685.64,o),
(414.97,709.74,cs)
);
}
);
width = 510;
}
);
note = Euro;
unicode = 8364;
},
{
glyphname = trademark;
layers = (
{
layerId = m01;
shapes = (
{
closed = 1;
nodes = (
(355.33,763.05,ls),
(286.38,782.28,o),
(112.38,768.84,o),
(81.97,768.84,cs),
(43.74,768.84,o),
(18.26,746.83,o),
(18.26,728.3,cs),
(18.26,708.6,o),
(37.95,679.65,o),
(54.17,679.65,cs),
(59.42,679.65,o),
(95.13,679.66,o),
(141.1,681.33,c),
(113.26,633.92,o),
(56.48,507.06,o),
(56.48,432.93,cs),
(56.48,357.64,o),
(84.29,348.37,o),
(110.92,348.37,cs),
(168.83,348.37,o),
(261.5,600.89,o),
(261.5,641.43,cs),
(261.5,660.35,o),
(249.39,675.74,o),
(234.48,686.78,c),
(276.75,690.39,o),
(317.4,695.81,o),
(344.91,703.99,cs),
(365.97,710.25,o),
(381.98,725.53,o),
(381.98,734.11,cs),
(381.98,742.61,o),
(373.02,758.13,o),
(355.34,763.07,cs)
);
},
{
closed = 1;
nodes = (
(274.25,412.09,l),
(274.25,412.09,o),
(256.87,331,o),
(314.79,331,cs),
(372.72,331,o),
(431.79,566.14,o),
(456.11,617.11,c),
(463.07,590.46,o),
(494.33,407.45,o),
(526.77,407.45,cs),
(559.21,407.45,o),
(684.31,597.42,o),
(728.32,647.23,c),
(728.32,647.23,o),
(636.81,412.09,o),
(636.81,378.5,cs),
(636.81,354.17,o),
(661.13,336.8,o),
(685.46,336.8,cs),
(711.96,336.8,o),
(735.54,443.62,o),
(758.43,532.55,cs),
(780.55,618.48,o),
(802.44,686.61,o),
(802.44,686.61,c),
(802.44,686.61,o),
(798.97,741.05,o),
(775.8,741.05,cs),
(723.67,741.05,o),
(570.77,533.7,o),
(546.45,495.48,c),
(546.45,495.48,o),
(531.39,673.86,o),
(520.97,701.67,cs),
(510.54,729.46,o),
(512.86,764.21,o),
(454.94,764.21,cs),
(385.44,764.21,o),
(274.24,412.08,o),
(274.24,412.08,c)
);
}
);
width = 737;
}
);
note = trademark;
unicode = 8482;
},
{
glyphname = ff.liga;
layers = (
{
layerId = m01;
shapes = (
{
closed = 1;
nodes = (
(667.32,674.74,ls),
(725.75,723.74,o),
(827.53,670.97,o),
(827.53,736.94,cs),
(827.53,767.1,o),
(770.99,774.64,o),
(733.29,774.64,cs),
(682.4,774.64,o),
(602.05,764.13,o),
(552.35,723.75,cs),
(544.77,717.59,o),
(535.19,705.91,o),
(524.23,689.87,c),
(504.82,701.45,o),
(423.91,704.91,o),
(398.41,704.91,cs),
(347.52,704.91,o),
(267.17,694.4,o),
(217.47,654.02,cs),
(157.16,605.01,o),
(-3.05,277.07,o),
(-3.05,101.78,cs),
(-3.05,22.62,o),
(30.88,0,o),
(49.72,0,cs),
(109.76,0,o),
(189.46,239.11,o),
(247.33,405.56,c),
(264.73,406.2,o),
(341.09,407.59,o),
(374.32,410.34,c),
(334.97,306.18,o),
(305.43,171.5,o),
(305.43,101.78,cs),
(305.43,22.62,o),
(339.36,0,o),
(358.2,0,cs),
(418.24,0,o),
(497.94,239.11,o),
(555.81,405.56,c),
(615.93,407.76,o),
(724.64,389.15,o),
(724.64,434.67,cs),
(724.64,472.08,o),
(650.67,480.16,o),
(591.64,482.21,c),
(631.7,604.09,o),
(651.95,661.87,o),
(667.3,674.74,cs)
);
},
{
closed = 1;
nodes = (
(308.72,563.72,o),
(322.88,598.11,o),
(332.43,605.01,cs),
(365.52,628.91,o),
(454.18,628.31,o),
(488.04,630.05,c),
(464.51,587.5,o),
(438.53,534.43,o),
(413.74,477.46,c),
(380.46,480.23,o),
(302.45,481.54,o),
(283.16,482.22,c)
);
}
);
width = 727;
}
);
note = ff.liga;
unicode = 64256;
},
{
glyphname = fi.liga;
layers = (
{
layerId = m01;
shapes = (
{
closed = 1;
nodes = (
(491.95,495.25,o),
(356.42,485.21,o),
(327.63,486.22,c),
(367.68,608.11,o),
(387.94,665.88,o),
(403.29,678.75,cs),
(461.72,727.75,o),
(563.5,674.98,o),
(563.5,740.95,cs),
(563.5,771.11,o),
(506.96,778.65,o),
(469.26,778.65,cs),
(418.36,778.65,o),
(338.01,768.14,o),
(288.32,727.76,cs),
(228.01,678.76,o),
(41.42,281.07,o),
(41.42,105.79,cs),
(41.42,26.63,o),
(75.35,4.01,o),
(94.19,4.01,cs),
(154.23,4.01,o),
(233.93,243.12,o),
(291.8,409.57,c),
(320.92,410.64,o),
(396.88,413.81,o),
(454.33,421.96,c),
(395.25,324.74,o),
(348.86,130.3,o),
(346.68,85.76,cs),
(343.4,18.93,o),
(371.18,0.01,o),
(407.94,0.01,cs),
(474.85,0.01,o),
(541.76,238.43,o),
(556.83,279.9,cs),
(571.91,321.36,o),
(586.01,363.6,o),
(586.01,399.41,cs),
(586.01,410.33,o),
(582.4,456.82,o),
(554.8,468.55,cs)
);
},
{
closed = 1;
nodes = (
(559,629.4,o),
(501.19,605.45,o),
(501.19,577.81,cs),
(501.19,559.65,o),
(512.25,528.85,o),
(537.52,528.85,cs),
(562.79,528.85,o),
(642.54,541.48,o),
(642.54,591.23,cs),
(642.54,640.98,o),
(606.97,635.12,o),
(583.31,632.29,cs)
);
}
);
width = 611;
}
);
note = fi.liga;
unicode = 64257;
},
{
glyphname = fl.liga;
layers = (
{
layerId = m01;
shapes = (
{
closed = 1;
nodes = (
(508.24,94.24,ls),
(523.32,131.94,o),
(723.1,659.67,o),
(723.1,693.59,cs),
(723.1,727.52,o),
(714.65,765.21,o),
(682.61,765.21,cs),
(636.91,765.21,o),
(552.47,624.87,o),
(482.82,470.62,c),
(429.22,479.71,o),
(360.79,482.77,o),
(327.63,483.92,c),
(367.68,605.8,o),
(387.94,663.58,o),
(403.29,676.45,cs),
(461.72,725.45,o),
(563.5,672.68,o),
(563.5,738.65,cs),
(563.5,768.81,o),
(506.96,776.35,o),
(469.26,776.35,cs),
(418.36,776.35,o),
(338.01,765.84,o),
(288.32,725.46,cs),
(228.01,676.46,o),
(41.42,278.77,o),
(41.42,103.49,cs),
(41.42,24.33,o),
(75.35,1.71,o),
(94.19,1.71,cs),
(154.23,1.71,o),
(233.93,240.82,o),
(291.8,407.27,c),
(322.12,408.38,o),
(389.42,411.78,o),
(448.68,420.7,c),
(402.91,307.89,o),
(369.75,169.36,o),
(369.75,113.08,cs),
(369.75,47.12,o),
(426.29,-0.01,o),
(462.1,-0.01,cs),
(497.91,-0.01,o),
(637.38,50.88,o),
(637.38,86.69,cs),
(637.38,122.5,o),
(570.44,109.31,o),
(508.25,94.23,cs)
);
}
);
width = 646;
}
);
note = fl.liga;
unicode = 64258;
},
{
glyphname = ffl.liga;
layers = (
{
layerId = m01;
shapes = (
{
closed = 1;
nodes = (
(785.71,94.24,ls),
(800.79,131.94,o),
(1000.57,659.67,o),
(1000.57,693.59,cs),
(1000.57,727.52,o),
(992.12,765.21,o),
(960.08,765.21,cs),
(914.38,765.21,o),
(829.94,624.87,o),
(760.29,470.62,c),
(706.69,479.71,o),
(646.77,482.77,o),
(613.6,483.92,c),
(653.65,605.8,o),
(673.91,663.58,o),
(689.26,676.45,cs),
(747.69,725.45,o),
(840.96,672.68,o),
(840.96,738.65,cs),
(840.96,768.81,o),
(784.42,776.35,o),
(746.72,776.35,cs),
(695.83,776.35,o),
(623.98,765.84,o),
(574.29,725.46,cs),
(566.71,719.3,o),
(557.13,707.62,o),
(546.17,691.58,c),
(526.76,703.16,o),
(454.36,706.62,o),
(428.85,706.62,cs),
(377.96,706.62,o),
(297.61,696.11,o),
(247.91,655.73,cs),
(187.59,606.72,o),
(27.39,278.78,o),
(27.39,103.49,cs),
(27.39,24.33,o),
(61.32,1.71,o),
(80.16,1.71,cs),
(140.2,1.71,o),
(219.9,240.82,o),
(277.77,407.27,c),
(295.17,407.91,o),
(363.02,409.3,o),
(396.25,412.05,c),
(356.9,307.89,o),
(327.36,173.21,o),
(327.36,103.49,cs),
(327.36,24.33,o),
(361.29,1.71,o),
(380.13,1.71,cs),
(440.17,1.71,o),
(519.87,240.82,o),
(577.74,407.27,c),
(608.06,408.38,o),
(666.85,411.78,o),
(726.11,420.7,c),
(680.34,307.89,o),
(647.18,169.36,o),
(647.18,113.08,cs),
(647.18,47.12,o),
(703.72,-0.01,o),
(739.53,-0.01,cs),
(775.34,-0.01,o),
(914.81,50.88,o),
(914.81,86.69,cs),
(914.81,122.5,o),
(847.87,109.31,o),
(785.68,94.23,cs)
);
},
{
closed = 1;
nodes = (
(353.64,605.79,o),
(347.51,593.84,o),
(362.86,606.71,cs),
(394.14,632.94,o),
(476.1,630.01,o),
(509.96,631.75,c),
(486.43,589.2,o),
(460.45,536.13,o),
(435.66,479.16,c),
(402.38,481.93,o),
(332.88,483.24,o),
(313.59,483.92,c)
);
}
